<svg width="73" height="59" viewBox="0 0 73 59" fill="none" xmlns="http://www.w3.org/2000/svg">
<rect x="66.417" y="21.3745" width="8.48566" height="2.55639" transform="rotate(42 66.417 21.3745)" fill="#755FFE" fill-opacity="0.45"/>
<rect x="49.3174" y="45.3139" width="3.35579" height="2.55639" transform="rotate(-125 49.3174 45.3139)" fill="#4BC8EF" fill-opacity="0.45"/>
<rect x="22.813" y="25.6494" width="1.64583" height="3.41136" transform="rotate(69 22.813 25.6494)" fill="#C9FCBE" fill-opacity="0.75"/>
<rect x="21.103" y="17.0996" width="1.64583" height="3.41136" transform="rotate(-21 21.103 17.0996)" fill="#FF21FB"/>
<circle cx="6.72866" cy="42.9092" r="1.87027" fill="#480CA7"/>
<circle cx="48.1952" cy="24.5272" r="0.587798" fill="#FFED36" fill-opacity="0.9"/>
<circle cx="46.9127" cy="42.0542" r="1.01529" fill="#F62584" fill-opacity="0.65"/>
<circle cx="56.3175" cy="1.01529" r="1.01529" fill="#03A3F5" fill-opacity="0.45"/>
<path d="M58.655 9.06619L61.0421 9.06619L61.7797 11.3364L59.8485 12.7395L57.9173 11.3364L58.655 9.06619Z" fill="#C9FCBE" fill-opacity="0.85"/>
<path d="M42.0479 8.65957L42.5988 10.4618L41.0551 11.5427L39.5501 10.4085L40.1636 8.62668L42.0479 8.65957Z" fill="#4BC8EF" fill-opacity="0.65"/>
<path d="M47.7446 58.609L45.7013 55.7966L48.5136 53.7534L50.5569 56.5657L47.7446 58.609Z" fill="#9AF5FC" fill-opacity="0.65"/>
<path d="M11.9457 45.0084L13.1677 43.3867L15.1832 43.6341L15.9766 45.5033L14.7546 47.125L12.7391 46.8775L11.9457 45.0084Z" fill="#03A3F5" fill-opacity="0.75"/>
<path d="M10.9912 50.0831L9.75486 48.6608L10.7255 47.0455L12.5617 47.4694L12.726 49.3468L10.9912 50.0831Z" fill="#C9FCBE" fill-opacity="0.6"/>
<path d="M15.9991 2.2948L14.6112 3.41869L15.2512 5.08596L13.7534 4.1133L12.3655 5.2372L12.8277 3.51216L11.3299 2.5395L13.1134 2.44603L13.5756 0.720996L14.2156 2.38827L15.9991 2.2948Z" fill="#755FFE" fill-opacity="0.75"/>
<path d="M3.53472 3.243L2.28915 3.31495L1.53299 4.30734L1.46103 3.06177L0.468647 2.30561L1.71422 2.23365L2.47038 1.24126L2.54233 2.48683L3.53472 3.243Z" fill="#F62584" fill-opacity="0.6"/>
<path d="M24.1147 47.7468L24.5339 46.7129L23.5142 46.2605L24.6191 46.1066L24.5011 44.9972L25.1869 45.8772L26.0886 45.2203L25.6694 46.2542L26.6891 46.7067L25.5842 46.8605L25.7022 47.9699L25.0164 47.0899L24.1147 47.7468Z" fill="#4BC8EF" fill-opacity="0.6"/>
</svg>
