<svg width="76" height="77" viewBox="0 0 76 77" fill="none" xmlns="http://www.w3.org/2000/svg">
<path d="M31.0829 28.103C29.4826 28.6343 28.6126 30.3683 29.1437 31.9688C29.5693 33.2508 30.7663 34.0638 32.0485 34.0638C32.367 34.0638 32.6909 34.0135 33.0095 33.9078C34.6098 33.3767 35.4798 31.6425 34.9486 30.0422C34.4174 28.4419 32.683 27.5719 31.0829 28.103ZM32.542 32.4991C31.7183 32.7727 30.8259 32.3247 30.5527 31.501C30.2794 30.6775 30.7271 29.7851 31.5506 29.5118C31.7145 29.4575 31.8812 29.4317 32.0451 29.4317C32.7049 29.4317 33.321 29.8501 33.54 30.5098C33.8132 31.3334 33.3654 32.2257 32.542 32.4991Z" fill="black"/>
<path d="M44.7932 34.4484C44.2607 32.8477 42.5264 31.9778 40.9265 32.51C39.3271 33.0405 38.4573 34.7745 38.9875 36.3747C39.0185 36.4683 39.0547 36.5598 39.0944 36.6496H36.0125L41.3398 26.0289L40.0129 25.3634L34.3519 36.6496H26.4902V38.134H50.2895V36.6496H44.6897C44.9879 35.9752 45.0405 35.1961 44.7932 34.4484ZM40.3966 35.9084C40.1236 35.0843 40.571 34.192 41.3944 33.9189C42.2182 33.6452 43.1106 34.0929 43.3842 34.9158C43.5968 35.5577 43.3815 36.2445 42.8616 36.6497H40.9197C40.6774 36.4603 40.4941 36.2034 40.3966 35.9084Z" fill="black"/>
<path d="M34.1299 54.3604L35.1797 55.41L46.6629 43.9253L45.6131 42.8757L34.1299 54.3604Z" fill="black"/>
<path d="M36.2744 42.6672C34.5882 42.6672 33.2163 44.0391 33.2163 45.7253C33.2163 47.4116 34.5882 48.7838 36.2744 48.7838C37.9607 48.7838 39.3324 47.4117 39.3324 45.7253C39.3325 44.0391 37.9607 42.6672 36.2744 42.6672ZM36.2744 47.2992C35.4067 47.2992 34.7007 46.5931 34.7007 45.7252C34.7007 44.8574 35.4067 44.1515 36.2744 44.1515C37.1422 44.1515 37.848 44.8574 37.848 45.7252C37.8482 46.5931 37.1422 47.2992 36.2744 47.2992Z" fill="black"/>
<path d="M41.1714 53.0086C41.1714 54.6947 42.5432 56.0667 44.2296 56.0667C45.916 56.0667 47.2878 54.6948 47.2878 53.0086C47.2878 51.3223 45.916 49.9503 44.2296 49.9503C42.5432 49.9503 41.1714 51.3223 41.1714 53.0086ZM45.8032 53.0086C45.8032 53.8763 45.0973 54.5823 44.2295 54.5823C43.3616 54.5823 42.6556 53.8763 42.6556 53.0086C42.6556 52.1407 43.3616 51.4347 44.2295 51.4347C45.0974 51.4348 45.8032 52.1408 45.8032 53.0086Z" fill="black"/>
<path d="M10.4003 38.134H16.9795C18.6839 38.134 20.0706 39.9404 20.0706 42.1609H21.555C21.555 39.9404 22.9415 38.1338 24.646 38.1338V36.6494C22.9417 36.6494 21.555 34.8428 21.555 32.6223H20.0706C20.0706 34.8428 18.6839 36.6494 16.9795 36.6494L8.91595 36.6496V43.455L5.0971 31.9501L11.3423 29.8786L10.875 28.4698L3.2207 31.0087L8.9161 48.1673V62.08H50.2893V60.5957H10.4003V38.134ZM20.8129 35.6261C21.2054 36.3503 21.735 36.9567 22.3574 37.3918C21.735 37.827 21.2054 38.4332 20.8129 39.1574C20.4205 38.4332 19.8908 37.827 19.2684 37.3918C19.8908 36.9567 20.4205 36.3503 20.8129 35.6261Z" fill="black"/>
<path d="M58.9233 60.5957H54.9238V62.08H58.9233V60.5957Z" fill="black"/>
<path d="M72.0375 44.5891H72.7797V36.6496H54.9238V38.134H71.2953V43.1491C68.2416 43.5167 65.8677 46.1235 65.8677 49.2743C65.8677 52.4263 68.2416 55.0339 71.2953 55.4014V60.5958H68.468V60.5955C66.7636 60.5955 65.3769 58.789 65.3769 56.5686H63.8926C63.8926 58.789 62.5059 60.5955 60.8015 60.5955V62.0799C62.5059 62.0799 63.8926 63.8867 63.8926 66.1072H65.3769C65.3769 63.8885 66.7611 62.0833 68.4637 62.0802H72.7797V53.9615H72.0375C69.4539 53.9615 67.3521 51.8589 67.3521 49.2743C67.3519 46.6908 69.4538 44.5891 72.0375 44.5891ZM64.6348 63.1032C64.2421 62.379 63.7127 61.7728 63.0903 61.3376C63.7127 60.9025 64.2423 60.2963 64.6348 59.572C65.0274 60.2963 65.5569 60.9025 66.1791 61.3376C65.5569 61.7728 65.0272 62.379 64.6348 63.1032Z" fill="black"/>
<path d="M53.3076 56.6876H51.8232V58.3204H53.3076V56.6876Z" fill="black"/>
<path d="M53.3076 46.8907H51.8232V48.5235H53.3076V46.8907Z" fill="black"/>
<path d="M53.3076 50.1564H51.8232V51.7892H53.3076V50.1564Z" fill="black"/>
<path d="M53.3076 59.9532H51.8232V61.586H53.3076V59.9532Z" fill="black"/>
<path d="M53.3076 53.422H51.8232V55.0548H53.3076V53.422Z" fill="black"/>
<path d="M53.3076 37.0939H51.8232V38.7267H53.3076V37.0939Z" fill="black"/>
<path d="M53.3076 40.3595H51.8232V41.9923H53.3076V40.3595Z" fill="black"/>
<path d="M53.3076 43.6251H51.8232V45.2579H53.3076V43.6251Z" fill="black"/>
<path d="M58.8848 51.5986H57.4004V54.552H58.8848V51.5986Z" fill="black"/>
<path d="M58.8848 43.6426H57.4004V50.1143H58.8848V43.6426Z" fill="black"/>
<path d="M61.5439 43.6426H60.0596V54.5522H61.5439V43.6426Z" fill="black"/>
<path d="M29.7417 44.712H16.5444V46.1963H29.7417V44.712Z" fill="black"/>
<path d="M15.0602 44.712H13.3271V46.1963H15.0602V44.712Z" fill="black"/>
<path d="M24.8175 52.8972H13.3271V54.3816H24.8175V52.8972Z" fill="black"/>
<path d="M29.7419 48.8047H27.4653V50.2891H29.7419V48.8047Z" fill="black"/>
<path d="M26.2929 48.8047H13.3271V50.2891H26.2929V48.8047Z" fill="black"/>
<path d="M42.9586 19.3868L42.4912 17.978L19.903 25.4725L20.3705 26.8813L42.9586 19.3868Z" fill="black"/>
<path d="M62.8926 12.7693L64.4723 17.5286C63.2263 18.1136 62.2186 19.0928 61.5917 20.3424C60.8527 21.8156 60.7315 23.4882 61.2506 25.0522C61.7698 26.6168 62.8672 27.8855 64.3402 28.6248C65.5897 29.2516 66.9828 29.4342 68.332 29.1582L70.2017 34.792L71.6105 34.3246L69.2872 27.3237L68.5827 27.5573C67.3952 27.9516 66.125 27.8594 65.0061 27.298C63.8872 26.7368 63.0538 25.7731 62.6593 24.5847C62.2653 23.3971 62.3572 22.1269 62.9185 21.0081C63.4797 19.8894 64.4429 19.0562 65.6304 18.6619L66.3349 18.4281L63.834 10.8929L46.8872 16.5171L47.3546 17.926L62.8926 12.7693Z" fill="black"/>
<path d="M45.627 22.5665L47.0356 22.0989L46.5213 20.5492L45.1126 21.0168L45.627 22.5665Z" fill="black"/>
<path d="M49.2259 33.412L49.7402 34.9617L51.1491 34.4941L50.6347 32.9444L49.2259 33.412Z" fill="black"/>
<path d="M46.007 18.9982L45.4927 17.4486L44.084 17.9161L44.5983 19.4657L46.007 18.9982Z" fill="black"/>
<path d="M50.1217 31.3958L49.6074 29.8462L48.1987 30.3137L48.713 31.8633L50.1217 31.3958Z" fill="black"/>
<path d="M46.144 24.1159L46.6582 25.6657L48.0669 25.1984L47.5527 23.6485L46.144 24.1159Z" fill="black"/>
<path d="M49.0944 28.2968L48.5801 26.7471L47.1714 27.2146L47.6857 28.7643L49.0944 28.2968Z" fill="black"/>
<path d="M55.2263 29.5L53.8174 29.9675L54.7474 32.7706L56.1564 32.3032L55.2263 29.5Z" fill="black"/>
<path d="M52.7205 21.949L51.3115 22.4165L53.3495 28.5588L54.7584 28.0913L52.7205 21.949Z" fill="black"/>
<path d="M57.4011 31.891L58.8101 31.4236L55.3746 21.0693L53.9657 21.5368L57.4011 31.891Z" fill="black"/>
</svg>
