<svg width="683" height="400" viewBox="0 0 683 400" fill="none" xmlns="http://www.w3.org/2000/svg">
<path d="M86.5333 2.1678C84.6667 3.23446 82.4 5.7678 81.6 7.7678C80.4 10.8345 76 54.1678 76 62.9678C76 65.3678 74.6667 65.5011 52.5333 65.5011C39.0667 65.5011 28.1333 66.0345 26.5333 66.8345C23.3333 68.5678 20 74.9678 20 79.3678C20 81.2345 21.7333 84.7011 23.8667 87.1011L27.7333 91.5011L50.6667 91.9011L73.4667 92.3011L72.5333 103.234C72.1333 109.234 71.3333 117.768 70.8 122.168L70 130.168L58.2667 130.834C47.2 131.501 46.2667 131.768 43.0667 135.368C40.4 138.568 39.8667 140.301 40.4 144.568C41.6 153.634 48 157.501 61.8667 157.501H68.4L67.6 163.768C67.2 167.368 66.4 175.634 65.8667 182.434L65.0667 194.701L36.4 195.101L7.73333 195.501L3.86667 199.901C1.73333 202.301 0 205.768 0 207.634C0 212.034 3.33333 218.434 6.53333 220.168C8.13333 220.968 20.1333 221.501 36 221.501H62.9333L62.1333 229.101C61.6 233.368 59.4667 258.968 57.2 286.034C52.8 339.768 52.8 341.101 60.1333 344.834C63.0667 346.434 70.4 346.834 94.2667 346.968H124.667L129.2 356.568C135.467 369.901 150.267 384.568 164 391.368C187.6 402.834 212.4 402.834 236 391.368C249.733 384.568 264.533 369.901 270.8 356.568L275.333 346.968H368H460.667L465.2 356.568C471.467 369.901 486.267 384.568 500 391.368C523.6 402.834 548.4 402.834 572 391.368C585.733 384.568 600.533 369.901 606.8 356.568L611.333 346.968H641.733C675.067 346.834 678.267 346.168 681.2 339.234C682.4 336.434 682.667 314.301 682.4 255.501L682 175.501L678.4 168.834C671.6 156.034 660.267 148.568 645.733 147.101L637.2 146.168L619.867 106.168C592.4 42.1678 593.333 44.3011 589.2 42.0345C586.133 40.5678 576.267 40.1678 534 40.1678H482.667V25.5011C482.667 9.3678 481.333 4.9678 475.867 2.03446C470.267 -0.765536 91.7333 -0.632203 86.5333 2.1678ZM456 143.501V260.168H354.8H253.733L244.933 254.301C217.2 235.768 182.8 235.768 155.067 254.301L146.267 260.168H116.267H86.2667L87.2 247.234C87.7333 240.034 88.4 231.368 88.9333 227.768L89.7333 221.501H100.133C112.8 221.501 117.067 218.834 118.267 210.034C118.933 205.234 118.4 203.901 114.933 200.034C111.2 195.901 110.267 195.501 101.333 195.101L91.7333 194.568L92.5333 182.301C93.0667 175.634 93.8667 167.368 94.2667 163.768L95.0667 157.501H145.867C176.533 157.501 198.667 156.968 201.6 156.168C212 153.234 215.333 142.034 208.133 134.701L204.267 130.834H150.533H96.9333L97.8667 119.101C98.4 112.701 99.0667 104.034 99.4667 99.9011L100.267 92.3011L122.267 91.9011L144.267 91.5011L148.133 87.1011C153.467 81.2345 153.467 74.7011 148.133 69.3678L144.267 65.5011H123.2H102.267L103.2 55.1011C103.6 49.5011 104.4 40.8345 104.8 35.7678L105.733 26.8345H280.8H456V143.501ZM516 114.834C516 165.634 516.4 168.834 522.267 171.634C523.6 172.301 552.667 173.101 586.933 173.501L649.2 174.168L652.267 177.234C655.333 180.168 655.333 180.701 655.733 220.168L656.133 260.168H622.933H589.733L580.933 254.301C553.333 235.768 518.8 235.768 491.2 254.168L482.667 259.901V163.368V66.8345H499.333H516V114.834ZM590.667 105.634C599.867 126.968 607.6 144.968 607.733 145.634C608 146.301 593.6 146.834 575.467 146.834H542.667V106.834V66.8345H558.4H574L590.667 105.634ZM221.867 271.901C234 277.501 241.733 285.234 247.733 297.234C252.4 306.834 252.667 308.034 252.667 320.168C252.667 332.301 252.4 333.501 247.733 343.101C241.733 355.234 234 362.701 221.6 368.568C213.467 372.434 211.467 372.834 200 372.834C188.533 372.834 186.533 372.434 178.667 368.701C166 362.568 158.267 355.234 152.4 343.101C147.6 333.501 147.333 332.301 147.333 320.301C147.333 308.701 147.733 306.701 151.6 298.568C156.933 287.234 164.533 278.968 174.533 273.768C184.933 268.168 190.8 266.834 202.933 267.368C211.067 267.768 215.2 268.834 221.867 271.901ZM557.867 271.901C570 277.501 577.733 285.234 583.733 297.234C588.4 306.834 588.667 308.034 588.667 320.168C588.667 332.301 588.4 333.501 583.733 343.101C577.733 355.234 570 362.701 557.6 368.568C549.467 372.434 547.467 372.834 536 372.834C524.533 372.834 522.533 372.434 514.667 368.701C502 362.568 494.267 355.234 488.4 343.101C483.6 333.501 483.333 332.301 483.333 320.168C483.333 308.034 483.6 306.834 488.4 297.234C495.467 282.701 508.533 272.034 523.6 268.168C533.067 265.768 548.4 267.501 557.867 271.901ZM126 289.101C123.867 294.701 120 311.634 120 315.768V320.168H100.533H81.0667L81.8667 309.768C82.4 304.168 83.0667 296.701 83.4667 293.101L84.2667 286.834H105.6C125.333 286.834 126.933 286.968 126 289.101ZM462 289.101C459.867 294.701 456 311.634 456 315.768V320.168H368H280V315.768C280 311.634 276.133 294.701 274 289.101C273.067 286.968 278.133 286.834 368 286.834C457.867 286.834 462.933 286.968 462 289.101ZM656 303.501V320.168H636H616V315.768C616 311.634 612.133 294.701 610 289.101C609.067 286.968 610.667 286.834 632.533 286.834H656V303.501Z" fill="#262626"/>
<path d="M191.6 66.9676C184.667 70.9676 183.867 82.4343 190.133 88.301C193.467 91.501 193.733 91.501 223.6 91.501H253.6L257.467 87.101C262.8 81.2343 262.8 74.701 257.467 69.3676L253.6 65.501H223.733C206 65.501 193.067 66.1676 191.6 66.9676Z" fill="#262626"/>
<path d="M249.733 134.035C246.667 136.701 246 138.301 246 143.235C246 154.035 252.267 157.501 272 157.368C286.933 157.368 292 155.501 295.067 149.235C297.2 144.968 297.333 143.501 296 139.501C293.467 131.635 290.933 130.835 271.067 130.835C254.4 130.835 253.333 130.968 249.733 134.035Z" fill="#262626"/>
<path d="M193.467 308.701C181.867 315.101 186.8 333.501 200 333.501C206.8 333.501 213.333 326.968 213.333 320.301C213.333 310.301 202.267 303.768 193.467 308.701Z" fill="#262626"/>
<path d="M529.467 308.701C517.867 315.101 522.8 333.501 536 333.501C542.8 333.501 549.333 326.968 549.333 320.301C549.333 310.301 538.267 303.768 529.467 308.701Z" fill="#262626"/>
</svg>
