<svg width="302" height="135" viewBox="0 0 302 135" fill="none" xmlns="http://www.w3.org/2000/svg">
<path d="M49.17 105.811H0V86.3712L46.55 13.6812H68.77V88.1712H85.64V105.811H68.77V129.331H49.17V105.811ZM49.17 41.4512H48.84L19.93 88.1712H49.17V41.4512Z" fill="#945229"/>
<path d="M264.85 105.811H215.69V86.3712L262.24 13.6812H284.46V88.1712H301.28V105.811H284.46V129.331H264.85V105.811ZM268.27 41.4512H267.94L239.03 88.1712H268.27V41.4512Z" fill="#945229"/>
<path d="M147.12 19.4512C136.847 19.4492 126.804 22.4931 118.261 28.198C109.717 33.9029 103.057 42.0128 99.1222 51.5023C95.1872 60.9918 94.1541 71.435 96.1534 81.5116C98.1527 91.5882 103.095 100.846 110.355 108.114C117.615 115.382 126.867 120.335 136.941 122.346C147.015 124.357 157.459 123.336 166.954 119.412C176.448 115.488 184.565 108.837 190.28 100.3C195.995 91.7637 199.05 81.7242 199.06 71.4512C199.068 64.6253 197.73 57.8647 195.124 51.5562C192.517 45.2476 188.692 39.5147 183.868 34.6853C179.045 29.8558 173.316 26.0246 167.01 23.4106C160.705 20.7966 153.946 19.4512 147.12 19.4512Z" fill="white" stroke="#262626" stroke-width="1.03" stroke-linecap="round" stroke-linejoin="round"/>
<path d="M174.35 58.0712C175.675 58.0712 176.75 56.4728 176.75 54.5012C176.75 52.5295 175.675 50.9312 174.35 50.9312C173.024 50.9312 171.95 52.5295 171.95 54.5012C171.95 56.4728 173.024 58.0712 174.35 58.0712Z" fill="#262626"/>
<path d="M86.1 56.011L208.1 29.011L184.1 22.011C184.1 22.011 171.1 0.461045 167.63 0.0110451C164.16 -0.438955 101.1 13.011 101.1 13.011L97.1 43.371L86.1 56.011Z" fill="#262626"/>
<path d="M126.91 82.2209C126.91 82.2209 157.91 69.8309 171.47 92.9109Z" fill="white"/>
<path d="M171.47 93.431C171.38 93.4303 171.292 93.4058 171.215 93.3601C171.138 93.3145 171.074 93.2493 171.03 93.1711C157.84 70.7411 127.4 82.5811 127.1 82.7011C126.967 82.7528 126.82 82.7497 126.689 82.6925C126.559 82.6353 126.457 82.5287 126.405 82.396C126.353 82.2634 126.356 82.1157 126.414 81.9854C126.471 81.855 126.577 81.7528 126.71 81.7011C127.03 81.5811 158.28 69.4111 171.92 92.6111C171.987 92.7298 172.006 92.8699 171.972 93.0022C171.939 93.1344 171.856 93.2486 171.74 93.321C171.662 93.3818 171.568 93.4198 171.47 93.431Z" fill="#262626"/>
<path d="M111.5 129.111L97.71 107.311L157.99 97.001L162.13 117.891L168.25 98.651L199.09 104.741L192.82 129.111H111.5Z" fill="#262626"/>
<path d="M188.742 81.8389L194.299 81.0697L197.17 101.812C197.266 102.506 197.083 103.209 196.66 103.767C196.238 104.325 195.611 104.693 194.917 104.789L194.59 104.834C193.897 104.93 193.193 104.747 192.635 104.324C192.077 103.902 191.709 103.275 191.613 102.581L188.742 81.8389Z" fill="white"/>
<path d="M194.23 105.371C193.472 105.369 192.741 105.093 192.17 104.596C191.599 104.098 191.226 103.411 191.12 102.661L188.25 81.9108C188.233 81.7796 188.269 81.6469 188.349 81.542C188.43 81.437 188.549 81.3683 188.68 81.3508L194.23 80.5808C194.295 80.5724 194.361 80.5768 194.425 80.594C194.488 80.6111 194.548 80.6406 194.6 80.6808C194.653 80.7195 194.697 80.7689 194.73 80.8257C194.763 80.8826 194.783 80.9456 194.79 81.0108L197.64 101.751C197.699 102.16 197.677 102.576 197.573 102.976C197.47 103.376 197.289 103.752 197.04 104.081C196.79 104.41 196.478 104.687 196.121 104.894C195.764 105.102 195.37 105.237 194.96 105.291L194.64 105.341C194.504 105.36 194.367 105.37 194.23 105.371ZM189.31 82.2708L192.11 102.521C192.189 103.082 192.487 103.589 192.939 103.932C193.39 104.274 193.958 104.425 194.52 104.351H194.85C195.41 104.271 195.917 103.973 196.258 103.522C196.599 103.07 196.747 102.502 196.67 101.941L193.87 81.6908L189.31 82.2708Z" fill="#262626"/>
<path d="M193.439 62.29L184.474 63.5308L187.282 83.8174L196.247 82.5766L193.439 62.29Z" fill="white"/>
<path d="M187.28 84.3309C187.172 84.3282 187.068 84.2934 186.98 84.2309C186.926 84.1931 186.881 84.144 186.848 84.087C186.816 84.03 186.796 83.9664 186.79 83.9009L183.98 63.6009C183.97 63.5363 183.972 63.4703 183.988 63.4068C184.003 63.3432 184.031 63.2834 184.07 63.2309C184.153 63.1289 184.27 63.0612 184.4 63.0409L193.4 61.8009C193.465 61.7911 193.532 61.7945 193.596 61.811C193.659 61.8274 193.719 61.8566 193.772 61.8968C193.824 61.9369 193.867 61.9872 193.9 62.0446C193.932 62.102 193.953 62.1654 193.96 62.2309L196.77 82.5209C196.787 82.6521 196.751 82.7848 196.671 82.8897C196.59 82.9947 196.471 83.0635 196.34 83.0809L187.34 84.3209L187.28 84.3309ZM185.04 63.9609L187.71 83.2609L195.71 82.1609L193.04 62.8609L185.04 63.9609Z" fill="#262626"/>
<path d="M195.024 97.0715L192.399 97.4348C190.649 97.6771 189.426 99.2927 189.668 101.043L193.674 129.987C193.917 131.738 195.532 132.961 197.283 132.718L199.908 132.355C201.658 132.113 202.881 130.497 202.639 128.747L198.633 99.8026C198.39 98.0519 196.775 96.8292 195.024 97.0715Z" fill="white"/>
<path d="M196.83 133.261C195.938 133.26 195.076 132.936 194.404 132.35C193.731 131.764 193.293 130.954 193.17 130.071L189.17 101.121C189.102 100.64 189.129 100.15 189.251 99.6799C189.373 99.2096 189.587 98.7681 189.88 98.3808C190.473 97.6015 191.35 97.0877 192.32 96.9509L194.96 96.5909C195.929 96.457 196.912 96.7137 197.692 97.3044C198.473 97.8951 198.986 98.7715 199.12 99.7408L203.12 128.741C203.251 129.71 202.993 130.691 202.403 131.471C201.813 132.25 200.938 132.764 199.97 132.901L197.33 133.271L196.83 133.261ZM195.47 97.5508C195.347 97.541 195.223 97.541 195.1 97.5508L192.46 97.9108C192.108 97.9588 191.77 98.0764 191.464 98.2567C191.159 98.4369 190.892 98.6763 190.68 98.9608C190.463 99.2418 190.305 99.5639 190.215 99.9076C190.126 100.251 190.107 100.61 190.16 100.961L194.16 129.961C194.262 130.659 194.633 131.291 195.193 131.72C195.753 132.15 196.459 132.344 197.16 132.261L199.8 131.891C200.5 131.791 201.133 131.421 201.563 130.861C201.993 130.3 202.186 129.592 202.1 128.891L198.1 99.8909C198.011 99.2475 197.693 98.6578 197.205 98.2298C196.716 97.8018 196.09 97.5644 195.44 97.5609L195.47 97.5508Z" fill="#262626"/>
<path d="M188.24 81.7709C201.511 81.7709 212.27 71.0123 212.27 57.7409C212.27 44.4695 201.511 33.7109 188.24 33.7109C174.969 33.7109 164.21 44.4695 164.21 57.7409C164.21 71.0123 174.969 81.7709 188.24 81.7709Z" fill="white"/>
<path d="M188.22 82.2709C183.51 82.2688 178.901 80.9115 174.942 78.361C170.982 75.8105 167.841 72.1746 165.891 67.8872C163.942 63.5998 163.268 58.8421 163.949 54.182C164.63 49.5219 166.638 45.1562 169.733 41.606C172.827 38.0558 176.878 35.4711 181.402 34.1604C185.925 32.8497 190.73 32.8684 195.244 34.2142C199.757 35.56 203.788 38.1761 206.855 41.7503C209.922 45.3244 211.895 49.7056 212.54 54.3709C213.424 60.8095 211.721 67.3361 207.804 72.5219C203.887 77.7078 198.075 81.1306 191.64 82.0409C190.506 82.1936 189.364 82.2704 188.22 82.2709ZM188.22 34.2009C187.133 34.1998 186.047 34.2734 184.97 34.4209C180.358 35.0583 176.038 37.0491 172.558 40.1416C169.077 43.234 166.591 47.2892 165.416 51.7943C164.24 56.2994 164.426 61.0521 165.952 65.4511C167.477 69.8502 170.273 73.6982 173.985 76.5083C177.697 79.3185 182.16 80.9646 186.808 81.2385C191.456 81.5125 196.08 80.4019 200.097 78.0472C204.114 75.6926 207.342 72.1997 209.374 68.0102C211.405 63.8208 212.149 59.1229 211.51 54.5109C210.724 48.8959 207.941 43.7522 203.671 40.0222C199.401 36.2921 193.93 34.2255 188.26 34.2009H188.22Z" fill="#262626"/>
<path d="M188.24 77.2612C199.021 77.2612 207.76 68.5218 207.76 57.7412C207.76 46.9606 199.021 38.2212 188.24 38.2212C177.459 38.2212 168.72 46.9606 168.72 57.7412C168.72 68.5218 177.459 77.2612 188.24 77.2612Z" fill="white"/>
<path d="M188.23 77.7613C183.045 77.7613 178.063 75.7478 174.334 72.1453C170.605 68.5428 168.42 63.6329 168.242 58.4511C168.063 53.2692 169.903 48.2204 173.375 44.3694C176.847 40.5184 181.679 38.1662 186.851 37.8088C192.024 37.4515 197.133 39.1168 201.101 42.4538C205.07 45.7907 207.587 50.5384 208.123 55.6956C208.658 60.8528 207.17 66.0165 203.972 70.0976C200.774 74.1787 196.116 76.8583 190.98 77.5713C190.069 77.6989 189.15 77.7623 188.23 77.7613ZM188.23 38.7613C187.344 38.7618 186.458 38.822 185.58 38.9413C180.703 39.6175 176.278 42.1609 173.239 46.0354C170.2 49.9099 168.784 54.8129 169.29 59.7109C169.795 64.609 172.182 69.1196 175.948 72.2921C179.714 75.4646 184.564 77.0512 189.477 76.7175C194.39 76.3838 198.981 74.1559 202.283 70.5033C205.586 66.8507 207.341 62.0587 207.179 57.1373C207.018 52.2159 204.952 47.5495 201.417 44.1215C197.882 40.6935 193.154 38.7718 188.23 38.7613Z" fill="#262626"/>
<path d="M211.19 111.911C209.869 110.235 208.197 108.87 206.29 107.911C200.56 104.911 193.99 105.011 187.96 106.911C185.82 107.591 181.67 108.561 181.45 111.401C181.458 111.968 181.648 112.517 181.992 112.967C182.336 113.417 182.816 113.745 183.36 113.901C184.454 114.185 185.597 114.229 186.71 114.031C185.124 113.989 183.557 114.383 182.18 115.171C180.89 116.081 180.18 118.071 181.24 119.281C181.708 119.784 182.319 120.133 182.99 120.281C184.449 120.683 185.992 120.662 187.44 120.221C185.873 120.521 184.347 121.001 182.89 121.651C182.01 122.041 181.03 122.731 181.13 123.651C181.23 124.571 182.13 124.991 182.95 125.271C184.675 125.863 186.478 126.2 188.3 126.271C186.727 126.557 185.239 127.196 183.95 128.141C181.95 129.821 181.95 133.011 184.66 133.921C185.529 134.176 186.436 134.28 187.34 134.231C195.34 134.231 204.92 133.231 210.34 126.571C211.654 125.036 212.574 123.204 213.02 121.233C213.466 119.262 213.425 117.213 212.9 115.261C212.53 114.053 211.951 112.92 211.19 111.911Z" fill="white"/>
<path d="M187.28 134.701C186.341 134.747 185.402 134.635 184.5 134.371C183.902 134.189 183.365 133.848 182.946 133.385C182.527 132.922 182.241 132.354 182.12 131.741C182.006 131.002 182.084 130.245 182.347 129.545C182.609 128.844 183.048 128.223 183.62 127.741C184.265 127.206 184.995 126.783 185.78 126.491C184.76 126.318 183.757 126.061 182.78 125.721C181.45 125.261 180.78 124.581 180.63 123.721C180.48 122.861 181.25 121.821 182.63 121.171L183.34 120.871C183.158 120.837 182.978 120.794 182.8 120.741C182.031 120.579 181.332 120.18 180.8 119.601C180.556 119.302 180.378 118.955 180.276 118.583C180.175 118.211 180.152 117.822 180.21 117.441C180.287 116.91 180.47 116.4 180.749 115.941C181.027 115.483 181.395 115.085 181.83 114.771C182.141 114.553 182.477 114.371 182.83 114.231C182.261 113.999 181.775 113.601 181.434 113.089C181.094 112.578 180.914 111.976 180.92 111.361C181.15 108.441 184.76 107.361 187.14 106.631L187.78 106.441C194.46 104.331 201.11 104.701 206.49 107.441C208.468 108.442 210.2 109.87 211.56 111.621C212.359 112.668 212.971 113.846 213.37 115.101C213.924 117.132 213.972 119.267 213.51 121.32C213.048 123.374 212.09 125.283 210.72 126.881C205.05 133.811 195.23 134.711 187.31 134.721L187.28 134.701ZM186.33 120.911C185.219 121.193 184.135 121.571 183.09 122.041C182.62 122.251 181.55 122.821 181.63 123.561C181.71 124.301 182.47 124.561 183.11 124.771C184.788 125.358 186.544 125.695 188.32 125.771C188.44 125.773 188.555 125.819 188.644 125.9C188.732 125.981 188.788 126.092 188.8 126.211C188.814 126.33 188.784 126.451 188.716 126.55C188.648 126.649 188.546 126.72 188.43 126.751C186.93 127.029 185.51 127.633 184.27 128.521C183.826 128.886 183.485 129.36 183.28 129.896C183.075 130.433 183.013 131.013 183.1 131.581C183.187 132.021 183.394 132.428 183.697 132.757C184.001 133.087 184.389 133.327 184.82 133.451C185.634 133.691 186.483 133.786 187.33 133.731C195.04 133.731 204.57 132.871 209.97 126.261C211.236 124.792 212.124 123.035 212.557 121.144C212.989 119.253 212.952 117.285 212.45 115.411C212.082 114.267 211.521 113.195 210.79 112.241C209.524 110.605 207.908 109.272 206.06 108.341C200.91 105.691 194.54 105.341 188.11 107.341L187.46 107.541C185.34 108.181 182.12 109.151 181.94 111.391C181.959 111.848 182.122 112.288 182.405 112.647C182.689 113.007 183.079 113.267 183.52 113.391C184.098 113.576 184.705 113.65 185.31 113.611C185.78 113.561 186.24 113.531 186.68 113.501C186.81 113.498 186.936 113.543 187.034 113.628C187.132 113.713 187.195 113.832 187.21 113.961C187.219 114.091 187.177 114.22 187.093 114.321C187.009 114.421 186.89 114.486 186.76 114.501C186.31 114.501 185.84 114.601 185.36 114.611C184.333 114.678 183.34 115.001 182.47 115.551C182.145 115.786 181.87 116.085 181.662 116.428C181.454 116.772 181.318 117.154 181.26 117.551C181.221 117.795 181.233 118.044 181.295 118.284C181.356 118.523 181.467 118.747 181.62 118.941C182.027 119.358 182.549 119.644 183.12 119.761C184.097 120.025 185.117 120.093 186.12 119.961C186.52 119.861 186.93 119.771 187.33 119.691C187.456 119.667 187.586 119.691 187.694 119.76C187.802 119.829 187.879 119.937 187.91 120.061C187.939 120.185 187.92 120.316 187.857 120.427C187.794 120.538 187.691 120.622 187.57 120.661C187.164 120.778 186.75 120.862 186.33 120.911Z" fill="#262626"/>
<path d="M155.43 58.1211C155.43 58.1211 167.61 76.4211 160.24 76.6811C152.87 76.9411 152.24 75.0111 152.24 75.0111" fill="white"/>
<path d="M158.92 77.2609C152.74 77.2609 151.85 75.5709 151.73 75.2609C151.688 75.1296 151.7 74.9872 151.761 74.864C151.823 74.7408 151.93 74.6465 152.06 74.6009C152.19 74.5597 152.331 74.5712 152.453 74.6329C152.574 74.6947 152.667 74.8017 152.71 74.9309C152.71 74.9309 153.61 76.4809 160.22 76.2409C160.542 76.2706 160.866 76.2072 161.153 76.0583C161.44 75.9094 161.679 75.6813 161.84 75.4009C163.42 72.3309 157.44 62.1509 155 58.4909C154.935 58.3769 154.915 58.2424 154.944 58.1144C154.974 57.9863 155.051 57.8743 155.16 57.8008C155.269 57.7273 155.402 57.6978 155.532 57.7182C155.662 57.7387 155.779 57.8075 155.86 57.9109C156.79 59.3109 164.86 71.7109 162.76 75.9109C162.52 76.3588 162.157 76.7291 161.715 76.9788C161.272 77.2284 160.768 77.3471 160.26 77.3209L158.92 77.2609Z" fill="#262626"/>
<path d="M189.35 64.6611C191.791 64.6611 193.77 61.2898 193.77 57.1311C193.77 52.9724 191.791 49.6011 189.35 49.6011C186.909 49.6011 184.93 52.9724 184.93 57.1311C184.93 61.2898 186.909 64.6611 189.35 64.6611Z" fill="#D1D3D4"/>
<path d="M135.26 63.221C137.121 63.221 138.63 60.4944 138.63 57.131C138.63 53.7676 137.121 51.041 135.26 51.041C133.399 51.041 131.89 53.7676 131.89 57.131C131.89 60.4944 133.399 63.221 135.26 63.221Z" fill="#262626"/>
</svg>
