<svg width="1471" height="1234" viewBox="0 0 1471 1234" fill="none" xmlns="http://www.w3.org/2000/svg">
<rect width="1471" height="1234" fill="white"/>
<path d="M861.006 1055.13C849.046 1060.65 843.473 1075.35 847.673 1087.13C851.406 1097.63 861.339 1101.43 862.339 1101.8C872.886 1105.64 886.459 1102.08 893.006 1091.13C899.819 1079.72 896.126 1065.13 886.339 1057.8C879.059 1052.35 869.099 1051.39 861.006 1055.13Z" fill="#F1E2D1"/>
<path d="M847.673 997.8C859.673 998.24 871.673 998.68 883.673 999.133C883.566 953.92 884.393 907.227 886.339 859.128C889.766 774.184 896.326 693.603 905.006 617.795C882.339 618.239 859.673 618.684 837.006 619.128" fill="#F1E2D1"/>
<path d="M414.339 173.8C417.806 170.24 428.219 175.253 430.726 176.467C435.206 178.613 442.779 183.187 449.593 192.96C457.899 186.36 468.619 186.6 473.886 191.933C478.859 196.973 477.219 204.773 477.006 205.707C479.219 212.987 481.446 220.267 483.673 227.547C487.419 230.32 492.793 235.013 497.353 242.173C502.699 250.573 504.526 258.6 505.233 263.48C514.326 266.2 523.939 262.227 527.713 255.013C530.513 249.627 529.793 243 526.019 237.867C529.579 231.613 529.193 224.2 525.046 219.04C519.939 212.693 511.673 212.893 510.726 212.933C520.286 211.867 528.513 206.16 531.899 198.16C535.153 190.427 532.659 183.48 531.926 181.627C546.113 165.267 544.086 154.08 543.579 151.773C539.513 133.387 507.619 119.107 464.473 127.293C474.673 113.293 476.313 96.4665 468.833 84.1199C467.339 81.6665 460.366 70.2532 446.299 69.2265C433.326 68.2798 424.033 76.8799 422.606 78.2399C421.233 76.6533 416.166 71.1998 407.273 69.8265C396.899 68.2132 388.993 73.3332 387.446 74.3865C386.073 71.8532 383.033 67.2532 377.513 64.9865C368.606 61.3199 356.846 65.2 349.006 75.1333C351.006 64.76 346.326 55.8933 339.673 53.8C333.646 51.8933 328.019 56.1866 327.673 56.4666C321.833 61.0533 319.966 70.2666 323.673 79.1333C325.779 70.56 323.073 61.96 317.006 57.8C308.366 51.8666 296.193 57.1599 290.339 64.4666C283.273 73.2799 285.966 84.36 286.339 85.8C284.579 84.64 274.486 78.2533 265.006 81.8C253.673 86.0266 246.313 103.28 253.006 121.8C246.366 122.44 236.886 124.053 226.339 128.467C222.446 130.08 211.553 134.72 202.339 143.133C184.713 159.213 170.819 191.253 183.313 216.107C185.673 220.813 190.553 228.413 201.006 235.133C199.073 236.453 185.326 246.227 183.673 264.467C182.206 280.56 191.233 291.707 193.006 293.8C179.233 304.84 176.313 322.395 183.566 332.915C190.233 342.563 203.246 343.084 205.006 343.128C199.393 357.997 204.539 374.608 217.006 383.128C227.939 390.613 242.753 390.643 254.339 383.128C253.059 381.351 251.459 378.669 250.339 375.128C248.939 370.735 248.913 366.909 249.073 364.501C255.859 357.299 256.339 352.641 255.673 349.795C253.926 342.409 243.286 342.429 234.339 329.795C232.059 326.588 228.793 321.852 230.339 317.8C231.819 313.867 236.473 314.12 238.339 309.8C240.233 305.387 236.433 302.773 237.006 297.8C237.913 289.907 248.979 283.467 258.339 281.8C267.819 280.093 268.753 284.493 281.006 284.467C294.299 284.427 309.913 279.187 311.673 271.133C312.339 268.027 311.006 264.307 313.006 263.133C314.259 262.387 315.633 263.227 319.686 263.4C320.766 263.453 322.046 263.4 323.673 263.133C323.673 263.133 330.033 262.067 335.553 258.067C349.379 248.027 346.473 224.107 346.339 223.133C344.499 209.453 336.726 200.293 333.006 196.467C351.619 201.667 361.246 207.867 366.633 212.8C369.219 215.173 375.859 221.827 383.179 220.68C385.766 220.28 387.006 219.16 388.566 219.693C391.233 220.6 393.059 225.707 391.059 241.987C393.673 241.227 401.206 238.693 406.379 231.52C412.233 223.373 412.726 212.48 407.833 203.227C410.539 199.867 413.659 194.867 414.339 188.467C415.139 180.8 411.873 176.307 414.339 173.8Z" fill="#262626"/>
<path d="M258.339 392.461C254.779 394.657 254.885 407.533 263.672 413.794C270.112 418.389 279.045 417.857 285.005 412.461C267.592 393.698 260.939 390.852 258.339 392.461Z" fill="#F1E2D1"/>
<path d="M278.339 407.128C276.712 408.23 280.645 424.401 291.672 427.128C300.259 429.252 309.499 422.316 309.005 420.461C308.632 419.096 303.192 421.241 295.672 419.128C284.285 415.929 279.672 406.216 278.339 407.128Z" fill="#F1E2D1"/>
<path d="M367.672 829.794C365.139 830.426 352.739 833.252 335.925 837.512C320.925 841.316 308.472 844.689 299.672 847.128C310.485 872.726 321.192 899.398 331.672 927.133C343.925 959.586 354.992 991.2 365.005 1021.8C399.325 1022.2 469.512 1017.63 530.339 969.8C542.912 959.893 553.485 949.426 562.339 939.133C579.219 908.013 596.112 876.905 613.005 845.794C638.339 799.128 663.672 752.461 689.005 705.794C647.805 730.91 612.379 748.093 587.672 759.128C509.579 794.001 439.712 811.793 367.672 829.794Z" fill="#F1E2D1"/>
<path d="M249.006 809.795C245.006 812.028 253.192 851.243 283.672 875.128C295.326 884.265 307.192 888.769 315.672 891.128C310.339 876.461 305.006 861.795 299.672 847.128C294.419 844.919 287.379 841.536 279.672 836.461C258.339 822.425 251.552 808.368 249.006 809.795Z" fill="#F1E2D1"/>
<path d="M249.005 1043.13C261.552 1039.17 287.365 1029.16 310.272 1004.57C328.965 984.52 337.485 963.587 341.379 951.507C331.072 960.387 309.765 976.253 278.445 982.973C257.459 987.48 239.499 986.267 227.672 984.467C234.779 1004.01 241.885 1023.57 249.005 1043.13Z" fill="#F1E2D1"/>
<path d="M1094.34 472.461C1096.09 477.533 1101.53 491.08 1115.67 500.461C1123.31 505.535 1130.77 507.569 1135.67 508.461C1141.45 500.016 1147.22 491.572 1153.01 483.128C1133.45 479.572 1113.89 476.016 1094.34 472.461Z" fill="#F1E2D1"/>
<path d="M484.339 248.146C481.672 249.693 474.499 253.4 464.939 253.386C463.552 253.386 462.126 253.32 460.646 253.146C452.846 252.24 446.739 249.053 442.326 245.8C440.126 244.173 438.366 242.52 437.046 241.16C435.726 239.786 434.859 238.693 434.446 238.16L430.232 241.426C431.206 242.693 434.192 246.413 439.152 250.08C444.112 253.76 451.112 257.413 460.032 258.44C461.712 258.64 463.352 258.72 464.939 258.72C475.886 258.72 483.939 254.533 486.992 252.773L484.339 248.146Z" fill="#262626"/>
<path d="M415.472 268.693C414.886 271.24 414.072 275.547 414.072 280.947C414.072 285.96 414.779 291.933 417.006 298.32C420.459 308.16 426.259 315.253 431.606 320.092C436.966 324.928 441.899 327.544 443.699 328.452L444.899 326.072L442.472 324.956C439.232 331.991 435.992 339.024 432.752 346.058L437.592 348.291C440.832 341.257 444.086 334.222 447.326 327.188L448.392 324.852L446.099 323.692C444.526 322.894 440.046 320.525 435.192 316.133C430.326 311.747 425.139 305.373 422.046 296.547C420.046 290.827 419.406 285.467 419.406 280.947C419.406 276.08 420.139 272.187 420.672 269.907L415.472 268.693Z" fill="#262626"/>
<path d="M347.02 306.76C347.913 314.76 348.793 322.756 349.686 330.754L354.98 330.167C354.1 322.167 353.206 314.16 352.313 306.16L347.02 306.76Z" fill="#262626"/>
<path d="M457.686 278.733C458.566 287.186 459.459 295.626 460.352 304.066L465.659 303.52C464.766 295.066 463.872 286.626 462.979 278.186L457.686 278.733Z" fill="#262626"/>
<path d="M350.285 268.76C346.432 273.413 339.712 280.36 329.499 285.986C317.819 292.426 306.979 294.173 300.672 294.706L301.125 300.026C307.885 299.44 319.525 297.573 332.072 290.653C343.045 284.6 350.259 277.146 354.392 272.16L350.285 268.76Z" fill="#262626"/>
<path d="M280.272 381.9C279.379 379.007 278.979 376.296 278.979 373.99C278.979 371.874 279.326 370.102 279.832 368.885C280.072 368.276 280.366 367.808 280.632 367.482C280.912 367.154 281.166 366.972 281.379 366.865C281.606 366.757 281.846 366.698 282.206 366.696C282.792 366.688 283.699 366.924 284.726 367.426C286.246 368.168 287.952 369.448 289.339 370.676C290.752 371.908 291.846 373.062 292.366 373.606C294.939 376.308 297.179 379.741 298.739 383.076C299.526 384.741 300.139 386.381 300.539 387.873C300.952 389.364 301.152 390.709 301.152 391.739C301.152 392.413 301.059 392.945 300.952 393.286C300.832 393.633 300.726 393.77 300.659 393.83C300.606 393.878 300.526 393.937 300.326 394C300.139 394.061 299.846 394.111 299.459 394.111C298.686 394.116 297.592 393.893 296.512 393.494C295.446 393.1 294.379 392.54 293.592 391.996C291.926 390.844 290.552 389.137 289.579 386.952C288.619 384.77 288.059 382.123 288.059 379.205C288.059 376.707 288.472 374.013 289.339 371.258L284.259 369.65C283.219 372.905 282.726 376.133 282.726 379.205C282.726 382.791 283.406 386.166 284.712 389.118C286.019 392.065 287.992 394.598 290.552 396.378C291.752 397.208 293.166 397.943 294.672 398.5C296.192 399.052 297.806 399.439 299.459 399.444C300.272 399.443 301.099 399.346 301.939 399.086C302.766 398.828 303.592 398.388 304.285 397.733C305.152 396.937 305.699 395.938 306.032 394.92C306.352 393.896 306.472 392.833 306.485 391.739C306.472 390.069 306.192 388.306 305.685 386.469C304.939 383.717 303.699 380.797 302.099 377.948C300.486 375.102 298.512 372.333 296.232 369.933C295.872 369.559 295.206 368.85 294.326 368.012C293.006 366.75 291.232 365.176 289.192 363.853C288.179 363.192 287.086 362.59 285.926 362.136C284.779 361.682 283.526 361.365 282.206 361.362C281.166 361.361 280.072 361.569 279.059 362.062C278.072 362.54 277.232 363.242 276.539 364.064C275.512 365.301 274.806 366.797 274.339 368.465C273.872 370.136 273.646 371.99 273.646 373.99C273.646 376.893 274.139 380.106 275.166 383.47L280.272 381.9Z" fill="#262626"/>
<path d="M264.525 343.469C262.058 344.824 258.591 346.976 255.378 350.119C252.165 353.255 249.178 357.436 247.898 362.779C247.472 364.601 247.271 366.421 247.271 368.217C247.271 372.951 248.645 377.469 250.725 381.623C253.832 387.856 258.525 393.34 262.965 397.748C267.405 402.148 271.645 405.473 273.845 407.201C292.005 421.445 311.738 424.256 322.618 424.808L322.885 419.481C312.591 418.964 294.045 416.284 277.138 403.006C275.685 401.863 273.405 400.076 270.805 397.773C266.898 394.323 262.258 389.711 258.671 384.548C256.871 381.969 255.338 379.257 254.271 376.508C253.205 373.756 252.605 370.977 252.605 368.217C252.605 366.819 252.751 365.42 253.085 364.016C254.058 359.919 256.392 356.587 259.098 353.931C261.805 351.28 264.871 349.357 267.085 348.149L264.525 343.469Z" fill="#262626"/>
<path d="M507.899 284.746C514.512 312.266 516.192 335.953 516.192 353.753C516.192 357.433 516.126 360.864 516.006 364.024C515.459 379.17 514.832 393.6 512.112 407.368C509.392 421.141 504.619 434.246 495.712 446.95C490.126 454.918 480.779 467.828 463.766 475.009C455.352 478.557 447.139 479.84 439.326 479.841C427.032 479.845 415.739 476.637 406.579 474.009C387.579 468.566 371.872 459.561 359.379 450.093C346.899 440.626 337.646 430.704 331.592 423.468L327.499 426.89C333.726 434.337 343.259 444.56 356.152 454.344C369.059 464.126 385.352 473.477 405.112 479.136C414.286 481.758 426.112 485.17 439.326 485.174C447.726 485.177 456.699 483.782 465.846 479.924C484.352 472.113 494.419 458.073 500.072 450.013C509.472 436.625 514.526 422.705 517.352 408.4C520.166 394.088 520.779 379.382 521.339 364.218C521.446 360.997 521.526 357.504 521.526 353.753C521.526 335.617 519.819 311.506 513.086 283.506L507.899 284.746Z" fill="#262626"/>
<path d="M487.766 458.264C492.539 470.236 497.312 482.209 502.086 494.181C505.699 503.264 509.326 512.345 512.952 521.428L517.899 519.453C514.286 510.37 510.659 501.288 507.032 492.205C502.259 480.233 497.486 468.261 492.712 456.289L487.766 458.264Z" fill="#262626"/>
<path d="M354.219 453.416C367.552 470.815 375.645 486.757 380.552 498.18C387.499 514.369 389.219 524.212 389.219 530.601C389.219 533.639 388.845 535.916 388.405 537.871C386.739 545.167 383.405 550.703 380.845 554.225L385.152 557.363C387.979 553.472 391.725 547.292 393.605 539.052C394.099 536.845 394.552 534.087 394.552 530.601C394.552 523.224 392.579 512.672 385.445 496.075C380.419 484.349 372.112 467.991 358.445 450.172L354.219 453.416Z" fill="#262626"/>
<path d="M331.392 194.706C331.966 195.186 335.965 198.626 339.752 204.266C343.565 209.92 347.126 217.68 347.126 226.88C347.126 228 347.072 229.146 346.952 230.32C346.752 232.52 346.099 237.066 344.032 241.986C341.966 246.92 338.512 252.173 332.672 256.053C326.646 260.04 320.406 261 315.672 261C313.992 261 312.499 260.88 311.299 260.733C310.086 260.586 309.179 260.413 308.592 260.293C308.006 260.186 306.792 259.946 305.299 259.573C303.046 259.013 300.152 258.093 297.966 256.88C296.859 256.28 295.952 255.613 295.366 254.973C294.779 254.333 294.539 253.8 294.472 253.293L294.459 253C294.459 252.426 294.672 251.6 295.166 250.706C295.899 249.373 297.232 247.946 298.699 246.946C300.179 245.92 301.792 245.373 302.872 245.386C303.152 245.386 303.406 245.426 303.632 245.48C304.246 245.626 305.046 246.106 305.899 247.053C307.166 248.453 308.432 250.786 309.299 253.52C310.179 256.253 310.685 259.4 310.685 262.4C310.699 265.4 310.179 268.253 309.139 270.453C308.326 272.186 307.126 273.746 305.512 275.16C303.086 277.28 299.712 279.026 295.512 280.226C291.326 281.426 286.326 282.08 280.739 282.08C273.379 282.08 264.992 280.946 256.046 278.506L254.646 283.653C263.992 286.2 272.832 287.413 280.739 287.413C288.739 287.413 295.792 286.186 301.526 283.76C304.379 282.546 306.899 281.026 309.019 279.186C311.125 277.346 312.819 275.173 313.966 272.706C315.432 269.56 316.019 265.986 316.019 262.4C316.019 257.6 314.966 252.76 313.179 248.746C312.272 246.746 311.179 244.946 309.846 243.48C308.512 242.013 306.912 240.826 304.966 240.32C304.272 240.133 303.566 240.053 302.872 240.053C301.126 240.066 299.472 240.533 297.926 241.266C295.606 242.36 293.526 244.04 291.926 246.026C291.126 247.026 290.446 248.106 289.939 249.266C289.446 250.426 289.126 251.68 289.126 253C289.126 253.306 289.139 253.626 289.179 253.933C289.339 255.173 289.792 256.306 290.406 257.253C291.512 258.946 293.045 260.16 294.685 261.146C297.152 262.626 299.939 263.6 302.339 264.293C304.739 264.986 306.779 265.373 307.592 265.533C308.192 265.653 309.259 265.853 310.646 266.026C312.019 266.2 313.726 266.333 315.672 266.333C321.112 266.346 328.485 265.226 335.619 260.493C342.539 255.906 346.592 249.68 348.952 244.053C351.312 238.426 352.019 233.36 352.272 230.826C352.392 229.493 352.459 228.173 352.459 226.88C352.459 216.266 348.366 207.506 344.179 201.293C339.979 195.066 335.632 191.306 334.819 190.613L331.392 194.706Z" fill="#262626"/>
<path d="M254.219 286.04H254.046C249.699 286.053 245.606 287.106 242.192 289.04C238.792 290.986 236.059 293.84 234.646 297.413C233.939 299.226 233.619 301.106 233.619 302.946C233.619 305.826 234.379 308.626 235.526 311.186C237.272 315.026 239.912 318.4 242.699 320.905C244.099 322.16 245.526 323.198 246.979 323.962C248.419 324.717 249.872 325.242 251.472 325.257C251.992 325.257 252.526 325.194 253.059 325.041C254.152 324.722 255.006 324.098 255.686 323.394C256.712 322.328 257.379 321.048 257.859 319.666C258.339 318.293 258.592 316.813 258.592 315.306C258.579 313.48 258.219 311.573 257.072 309.893C255.872 308.173 254.099 307.12 252.206 306.466C250.299 305.813 248.192 305.533 246.019 305.533C242.712 305.533 239.246 306.186 236.166 307.506C234.619 308.173 233.179 309.013 231.912 310.066C230.646 311.133 229.552 312.413 228.819 313.96C228.099 315.493 227.766 317.2 227.766 318.96C227.779 322.988 229.419 327.342 232.419 331.52C235.432 335.692 239.859 339.676 245.659 342.774L248.166 338.07C243.059 335.34 239.246 331.865 236.752 328.398C234.232 324.938 233.086 321.477 233.099 318.96C233.099 317.853 233.312 316.946 233.646 316.24C233.979 315.52 234.539 314.826 235.326 314.16C236.499 313.173 238.192 312.32 240.099 311.746C241.992 311.173 244.086 310.866 246.019 310.866C247.712 310.866 249.286 311.106 250.472 311.506C251.672 311.92 252.392 312.48 252.686 312.933C252.992 313.346 253.272 314.24 253.259 315.306C253.272 316.466 252.966 317.773 252.512 318.693C252.286 319.146 252.046 319.493 251.846 319.693L251.619 319.893L251.579 319.92H251.472C251.299 319.933 250.886 319.866 250.352 319.653C249.406 319.293 248.126 318.52 246.819 317.426C244.859 315.786 242.832 313.44 241.352 310.866C239.859 308.293 238.952 305.493 238.952 302.946C238.952 301.706 239.166 300.52 239.619 299.36C240.499 297.106 242.312 295.12 244.832 293.68C247.366 292.24 250.579 291.373 254.046 291.373H254.179L254.219 286.04Z" fill="#262626"/>
<path d="M338.419 120.093C340.099 118.826 343.206 116.626 347.379 114.76C351.552 112.906 356.766 111.373 362.672 111.373C363.886 111.373 365.126 111.44 366.392 111.586C376.339 112.666 385.299 118.053 391.886 125.48C398.486 132.893 402.606 142.28 403.032 150.92C403.059 151.373 403.099 152.173 403.099 153.24C403.099 155.586 402.886 159.2 401.886 162.533C401.379 164.186 400.699 165.773 399.792 167.106C398.872 168.44 397.779 169.533 396.366 170.32C394.686 171.28 392.606 171.746 390.339 171.746C386.606 171.76 382.406 170.426 379.206 168.373C377.606 167.36 376.259 166.16 375.299 164.946C374.352 163.72 373.806 162.506 373.646 161.386C373.606 161.133 373.592 160.866 373.592 160.6C373.592 159.426 373.952 158.04 374.686 156.64C375.766 154.533 377.659 152.413 379.899 150.84C382.126 149.253 384.686 148.226 387.006 148.066C387.259 148.04 387.512 148.04 387.766 148.04C390.339 148.026 393.232 148.986 396.139 150.813C400.499 153.546 404.779 158.213 407.899 163.773C411.019 169.32 412.992 175.746 412.979 181.92C412.979 183.08 412.912 184.213 412.779 185.346C412.139 190.666 409.739 196.666 406.232 201.2C404.486 203.466 402.486 205.373 400.339 206.706C398.192 208.04 395.926 208.813 393.552 208.906C393.379 208.92 393.206 208.92 393.019 208.92C390.126 208.933 386.712 207.92 384.112 206.293C382.806 205.48 381.712 204.52 380.926 203.546C380.139 202.56 379.686 201.573 379.539 200.613C379.499 200.36 379.472 200.093 379.472 199.826C379.472 198.64 379.872 197.253 380.712 195.84C381.939 193.706 384.112 191.546 386.619 190.013C389.112 188.466 391.926 187.546 394.326 187.56C394.672 187.56 395.006 187.573 395.326 187.613C397.179 187.813 399.139 188.626 401.046 190.04C403.912 192.16 406.619 195.586 408.526 199.613C410.459 203.64 411.606 208.24 411.606 212.653C411.606 215.306 411.192 217.866 410.326 220.24C408.939 224.013 406.539 226.84 404.086 228.92C401.632 230.986 399.166 232.253 397.806 232.893L400.072 237.72C401.659 236.973 404.552 235.493 407.526 232.986C410.486 230.493 413.552 226.933 415.339 222.08C416.446 219.04 416.939 215.853 416.939 212.653C416.926 205.56 414.539 198.453 410.819 192.853C408.939 190.04 406.726 187.613 404.219 185.76C401.726 183.906 398.899 182.626 395.886 182.306C395.366 182.253 394.846 182.226 394.326 182.226C391.872 182.226 389.432 182.813 387.139 183.76C383.699 185.213 380.566 187.493 378.192 190.24C377.006 191.613 376.006 193.12 375.286 194.72C374.579 196.333 374.139 198.053 374.139 199.826C374.139 200.36 374.179 200.906 374.272 201.453C374.592 203.493 375.512 205.306 376.752 206.866C378.619 209.2 381.192 210.986 384.032 212.253C386.859 213.52 389.979 214.253 393.019 214.253C393.272 214.253 393.526 214.253 393.766 214.24C397.179 214.093 400.366 212.973 403.152 211.226C407.352 208.613 410.752 204.64 413.286 200.186C415.806 195.733 417.486 190.76 418.072 186C418.232 184.64 418.312 183.28 418.312 181.92C418.299 172.186 414.312 162.586 408.646 155.266C405.792 151.613 402.512 148.52 398.979 146.293C395.446 144.08 391.632 142.706 387.766 142.706C387.379 142.706 386.992 142.72 386.619 142.746C381.899 143.106 377.486 145.506 374.099 148.72C372.406 150.346 370.979 152.186 369.939 154.2C368.912 156.186 368.259 158.36 368.259 160.6C368.259 161.106 368.299 161.613 368.366 162.12C368.686 164.386 369.712 166.44 371.112 168.226C373.219 170.92 376.192 173.066 379.539 174.613C382.899 176.146 386.632 177.08 390.339 177.08C393.326 177.08 396.326 176.466 398.979 174.973C401.192 173.733 402.912 172 404.206 170.106C406.139 167.24 407.152 164.013 407.739 161.013C408.312 158.013 408.432 155.24 408.432 153.24C408.432 152.04 408.392 151.106 408.366 150.653C407.832 140.546 403.192 130.186 395.872 121.933C388.566 113.706 378.499 107.546 366.979 106.28C365.512 106.12 364.072 106.04 362.672 106.04C355.846 106.04 349.899 107.8 345.206 109.893C340.512 111.986 337.059 114.426 335.192 115.853L338.419 120.093Z" fill="#262626"/>
<path d="M486.339 203.293C486.459 202.413 486.673 200.613 486.673 198.4C486.673 196.253 486.486 193.707 485.752 191.133C485.032 188.573 483.753 185.947 481.473 183.907C480.019 182.587 478.299 181.667 476.499 181.093C474.699 180.52 472.793 180.28 470.873 180.28C467.726 180.28 464.499 180.92 461.393 181.933C456.726 183.453 452.313 185.827 448.926 188.48C447.233 189.813 445.792 191.213 444.712 192.72C444.166 193.467 443.699 194.24 443.366 195.08C443.033 195.907 442.806 196.813 442.806 197.76C442.806 197.96 442.819 198.16 442.833 198.36V198.347C442.913 199.16 443.152 199.893 443.486 200.56C444.072 201.733 444.899 202.68 445.846 203.507C447.259 204.76 448.966 205.733 450.752 206.467C452.539 207.173 454.406 207.627 456.259 207.64C457.019 207.64 457.779 207.56 458.552 207.347C459.312 207.133 460.086 206.773 460.766 206.213C461.779 205.373 462.379 204.253 462.739 203.133C463.099 202 463.233 200.8 463.233 199.52C463.233 197.48 462.872 195.227 462.219 192.827C461.232 189.24 459.566 185.32 457.259 181.547C454.953 177.773 452.019 174.12 448.433 171.133C440.313 164.387 431.339 163.027 427.073 162.667L426.619 167.987C430.379 168.293 438.152 169.52 445.019 175.24C449.072 178.613 452.353 183.187 454.566 187.707C455.673 189.96 456.526 192.2 457.086 194.24C457.646 196.267 457.912 198.12 457.912 199.52C457.912 200.387 457.806 201.093 457.659 201.52C457.593 201.733 457.513 201.893 457.459 201.973L457.366 202.093C457.366 202.093 457.299 202.147 457.112 202.2C456.926 202.253 456.633 202.307 456.259 202.307C455.566 202.307 454.619 202.147 453.646 201.84C452.192 201.387 450.659 200.573 449.619 199.72C449.099 199.293 448.686 198.867 448.459 198.507C448.206 198.16 448.153 197.907 448.139 197.827V197.787V197.813V197.76C448.139 197.613 448.193 197.253 448.473 196.72C448.939 195.8 450.032 194.507 451.552 193.227C453.832 191.293 457.073 189.333 460.539 187.92C464.006 186.493 467.699 185.613 470.873 185.613C472.353 185.613 473.712 185.8 474.886 186.173C476.059 186.56 477.059 187.107 477.899 187.867C479.206 189.027 480.086 190.693 480.633 192.587C481.166 194.493 481.353 196.587 481.339 198.4C481.339 200.28 481.166 201.827 481.059 202.587L486.339 203.293Z" fill="#262626"/>
<path d="M486.245 131.573C489.765 129.707 497.419 126.213 506.952 126.213C509.392 126.213 511.965 126.44 514.632 126.986C522.139 128.493 530.792 132.626 537.365 138.453C540.659 141.36 543.445 144.68 545.379 148.253C547.312 151.826 548.405 155.64 548.419 159.68C548.419 160.293 548.392 160.907 548.339 161.533C548.045 164.92 546.992 168.227 545.352 171.267C542.872 175.853 539.045 179.853 534.645 182.667C530.259 185.493 525.299 187.12 520.645 187.12H520.339C517.179 187.08 513.285 186.227 510.312 184.867C508.832 184.187 507.579 183.387 506.752 182.6C506.339 182.2 506.032 181.827 505.832 181.467C505.632 181.12 505.525 180.827 505.472 180.533C505.459 180.413 505.445 180.293 505.445 180.16C505.432 179.373 505.832 178.106 506.779 176.72C508.179 174.626 510.685 172.36 513.552 170.707C516.405 169.04 519.632 168 522.365 168.013C523.432 168.013 524.405 168.16 525.312 168.453C526.685 168.906 528.085 169.786 529.419 171.08C531.405 173 533.192 175.84 534.445 179.093C535.712 182.36 536.432 186.04 536.432 189.64C536.432 194.453 535.152 199.053 532.352 202.586C530.539 204.88 528.125 206.667 525.285 207.907C522.445 209.147 519.179 209.813 515.712 209.813C512.979 209.813 510.112 209.4 507.259 208.533L505.712 213.64C509.059 214.653 512.432 215.146 515.712 215.146C519.859 215.146 523.845 214.36 527.419 212.8C530.979 211.253 534.139 208.933 536.539 205.893C540.259 201.2 541.765 195.36 541.765 189.64C541.752 183.893 540.259 178.187 537.725 173.467C536.459 171.107 534.925 168.986 533.125 167.253C531.339 165.52 529.285 164.146 526.979 163.386C525.472 162.893 523.912 162.68 522.365 162.68C519.685 162.68 517.032 163.307 514.512 164.307C510.752 165.827 507.299 168.186 504.685 170.893C503.379 172.253 502.272 173.707 501.459 175.24C500.645 176.773 500.112 178.413 500.112 180.16C500.112 180.56 500.139 180.973 500.205 181.373C500.365 182.4 500.739 183.346 501.245 184.186C502.125 185.666 503.379 186.853 504.792 187.853C506.925 189.333 509.485 190.44 512.165 191.2C514.845 191.973 517.645 192.413 520.272 192.44C520.392 192.453 520.512 192.453 520.645 192.453C528.499 192.426 536.299 188.92 542.405 183.44C545.445 180.693 548.072 177.44 550.032 173.813C552.005 170.186 553.299 166.173 553.645 161.973C553.712 161.2 553.752 160.44 553.752 159.68C553.752 154.653 552.365 149.947 550.072 145.707C546.619 139.36 541.165 134.053 535.045 129.973C528.912 125.907 522.085 123.053 515.685 121.76C512.645 121.146 509.725 120.88 506.952 120.88C496.112 120.893 487.659 124.8 483.752 126.867L486.245 131.573Z" fill="#262626"/>
<path d="M526.952 216.76C527.178 217.027 528.645 218.787 530.018 221.374C531.392 223.947 532.632 227.32 532.618 230.72C532.618 232.12 532.418 233.533 531.952 234.96C531.338 236.827 530.045 239.187 528.512 240.88C527.765 241.747 526.952 242.44 526.218 242.867C525.472 243.32 524.832 243.493 524.298 243.493C524.125 243.493 523.952 243.467 523.778 243.44C523.352 243.347 522.818 243.094 522.272 242.667C521.445 242.04 520.605 241.013 520.032 239.893C519.458 238.773 519.138 237.56 519.152 236.68C519.152 236.094 519.258 235.68 519.418 235.4C519.605 235.054 520.018 234.627 520.672 234.307C521.312 233.987 522.152 233.787 522.925 233.8C523.232 233.8 523.525 233.827 523.778 233.867C524.618 234.027 525.658 234.534 526.725 235.414C528.325 236.72 529.925 238.827 531.072 241.307C532.232 243.774 532.938 246.587 532.925 249.28C532.925 251.267 532.565 253.173 531.752 254.893C530.618 257.32 528.672 259.32 526.112 260.747C523.565 262.174 520.418 263 517.072 263.04L517.125 268.374C521.312 268.32 525.312 267.307 528.712 265.4C532.112 263.507 534.925 260.707 536.578 257.16C537.765 254.627 538.272 251.92 538.258 249.28C538.258 244.48 536.672 239.827 534.285 236.093C533.085 234.227 531.685 232.587 530.112 231.293C528.525 230 526.765 229.027 524.792 228.64C524.178 228.52 523.552 228.467 522.925 228.467C521.325 228.467 519.752 228.827 518.312 229.52C516.885 230.227 515.565 231.32 514.725 232.867C514.058 234.094 513.818 235.4 513.818 236.68C513.832 239.307 514.818 241.853 516.312 244.027C517.072 245.107 517.965 246.093 519.018 246.893C520.058 247.707 521.272 248.347 522.645 248.64C523.192 248.76 523.752 248.827 524.298 248.827C526.005 248.827 527.578 248.267 528.925 247.467C530.965 246.24 532.605 244.48 533.965 242.574C535.312 240.667 536.352 238.6 537.005 236.653C537.672 234.64 537.952 232.64 537.952 230.72C537.952 226.053 536.352 221.934 534.725 218.867C533.098 215.8 531.405 213.76 531.018 213.307L526.952 216.76Z" fill="#262626"/>
<path d="M474.46 120.106C474.953 119.466 477.313 116.306 479.58 111.386C481.846 106.466 484.033 99.7731 484.033 92.0798C484.033 87.9331 483.393 83.4798 481.766 78.9331C481.34 77.7198 479.286 72.1731 475.06 66.5331C472.953 63.7198 470.286 60.8664 466.953 58.5597C463.633 56.253 459.62 54.5064 454.966 53.9731C453.966 53.8664 452.966 53.8131 451.98 53.8131C444.126 53.8131 436.833 57.2797 431.34 62.3864C425.86 67.5197 422.086 74.3464 421.54 81.493C421.486 82.093 421.473 82.693 421.473 83.293C421.473 88.5864 423.1 93.6798 425.206 97.5998C426.273 99.5598 427.46 101.24 428.74 102.533C429.393 103.173 430.073 103.733 430.833 104.173C431.593 104.6 432.486 104.946 433.54 104.96C433.753 104.96 433.966 104.933 434.18 104.906H434.193C435.006 104.786 435.726 104.426 436.286 104C437.273 103.253 437.9 102.306 438.446 101.266C439.233 99.6931 439.793 97.8264 440.193 95.693C440.58 93.5597 440.793 91.1731 440.793 88.6531C440.793 85.0264 440.353 81.1331 439.286 77.3998C437.953 72.7065 435.46 67.6531 431.833 63.2665C428.206 58.8931 423.406 55.1598 417.473 53.3998C415.006 52.6798 412.513 52.3464 410.046 52.3464C405.326 52.3464 400.726 53.5465 396.486 55.4665C390.126 58.3598 384.566 62.8664 380.486 67.7597C378.46 70.1997 376.793 72.7464 375.606 75.2798C374.433 77.8131 373.726 80.3464 373.713 82.8264C373.713 83.7464 373.82 84.6531 374.046 85.5331C374.46 87.1865 375.286 88.6531 376.326 89.9464C377.886 91.8798 379.926 93.4131 382.153 94.5197C384.366 95.6264 386.78 96.3064 389.18 96.3064C390.686 96.3064 392.206 96.0264 393.62 95.3064C395.14 94.5198 396.34 93.3064 397.3 91.9064C398.753 89.7864 399.713 87.1731 400.38 84.2665C401.033 81.3598 401.353 78.1331 401.353 74.8131C401.353 69.2131 400.446 63.333 398.446 58.2264C397.433 55.6664 396.153 53.3064 394.526 51.2798C392.9 49.2664 390.9 47.5864 388.5 46.5464C386.7 45.7464 384.753 45.3864 382.766 45.3864C378.393 45.3997 373.873 47.0931 369.54 49.8665C365.193 52.6665 361.006 56.5998 357.406 61.3731L361.66 64.5864C364.913 60.2797 368.686 56.7597 372.42 54.3597C376.153 51.9464 379.833 50.7064 382.766 50.7197C384.113 50.7197 385.3 50.9597 386.353 51.4264C387.833 52.0664 389.166 53.1464 390.38 54.6398C392.193 56.8664 393.646 60.0131 394.593 63.5731C395.553 67.1198 396.033 71.0531 396.02 74.8131C396.033 78.7731 395.486 82.5465 394.54 85.3998C394.073 86.8265 393.5 88.0264 392.9 88.893C392.3 89.773 391.7 90.3064 391.18 90.5597C390.7 90.813 390.02 90.9731 389.18 90.9731C387.38 90.9864 384.94 90.1864 382.98 88.8531C381.993 88.1864 381.126 87.4131 380.473 86.5998C379.833 85.7865 379.406 84.9731 379.206 84.2131C379.113 83.8131 379.046 83.3597 379.046 82.8264C379.033 80.9464 379.873 78.2664 381.54 75.4531C384.033 71.2131 388.3 66.6797 393.38 63.293C398.46 59.893 404.34 57.6664 410.046 57.6798C412.033 57.6798 414.02 57.9464 415.966 58.5197C420.646 59.8931 424.606 62.9065 427.726 66.6665C430.82 70.4131 433.033 74.8798 434.166 78.8665C435.06 82.0265 435.46 85.4664 435.46 88.6531C435.46 92.0131 435.006 95.1198 434.34 97.2131C434.02 98.2664 433.62 99.0531 433.34 99.4531C433.193 99.6397 433.086 99.7331 433.086 99.7331L433.313 100.04L433.166 99.693L433.086 99.7331L433.313 100.04L433.166 99.693L433.526 100.533L433.393 99.6264L433.166 99.693L433.526 100.533L433.393 99.6264H433.406L433.54 100.546V99.6264H433.406L433.54 100.546V99.6264V100.28L433.646 99.6264H433.54V100.28L433.646 99.6264L433.62 99.7864L433.66 99.6264H433.646L433.62 99.7864L433.66 99.6264C433.646 99.6264 433.42 99.5331 433.126 99.3064C432.606 98.9198 431.86 98.1331 431.14 97.0798C430.033 95.5064 428.926 93.3331 428.113 90.9197C427.313 88.5064 426.793 85.853 426.806 83.293C426.806 82.8264 426.82 82.3597 426.846 81.893C427.246 76.3997 430.326 70.613 434.98 66.293C439.62 61.9597 445.74 59.1331 451.98 59.1464C452.766 59.1464 453.566 59.1864 454.353 59.2798C458.046 59.7064 461.193 61.0664 463.913 62.9464C468.006 65.7731 471.126 69.8398 473.246 73.3998C475.366 76.9731 476.5 80.0131 476.753 80.7197C478.153 84.6664 478.7 88.4798 478.7 92.0798C478.713 98.7464 476.78 104.733 474.74 109.16C472.7 113.586 470.553 116.44 470.233 116.84L474.46 120.106Z" fill="#262626"/>
<path d="M242.979 118.933C234.166 114.973 226.766 113.76 221.019 113.76C216.352 113.76 212.766 114.56 210.406 115.28C203.992 117.2 198.086 120.653 192.819 125.16C184.926 131.92 178.499 141.053 173.992 151.28C169.512 161.493 166.952 172.813 166.952 183.96C166.952 193.773 168.926 203.466 173.366 212.12C176.766 218.76 181.246 224.04 185.899 228.213C190.552 232.386 195.392 235.466 199.579 237.706L200.832 235.346L201.632 232.8C200.166 232.346 195.766 231.04 190.339 231.04C187.979 231.04 185.419 231.293 182.819 231.986C180.219 232.693 177.579 233.84 175.126 235.653C171.379 238.373 168.792 242.08 167.179 246.146C165.552 250.226 164.872 254.68 164.872 259.133C164.886 266.453 166.699 273.786 169.579 279.626C173.019 286.56 177.859 291 181.086 293.493L182.712 291.386L181.672 288.92C179.966 289.653 176.832 291.12 173.606 293.693C170.392 296.24 167.046 299.946 165.126 305.08C164.032 307.986 163.539 310.973 163.539 313.92C163.552 320.116 165.659 326.094 168.779 331.293C171.899 336.496 176.046 340.942 180.379 344.088C187.099 348.964 193.966 350.42 198.099 350.922L198.739 345.628C195.139 345.19 189.219 343.921 183.512 339.77C179.806 337.093 176.086 333.109 173.352 328.549C170.606 323.985 168.872 318.866 168.872 313.92C168.872 311.56 169.259 309.226 170.112 306.946C171.619 302.946 174.246 300 176.926 297.853C179.606 295.72 182.299 294.453 183.752 293.84L187.952 292.053L184.339 289.266C181.499 287.08 177.312 283.2 174.366 277.253C171.859 272.226 170.206 265.546 170.206 259.133C170.206 255.226 170.819 251.413 172.126 248.12C173.446 244.813 175.432 242.026 178.272 239.946C180.139 238.586 182.152 237.693 184.206 237.146C186.259 236.586 188.366 236.373 190.339 236.373C194.912 236.373 198.806 237.506 200.032 237.893L202.086 233C198.192 230.92 193.712 228.066 189.459 224.24C185.192 220.426 181.166 215.653 178.112 209.693C174.126 201.906 172.286 193.053 172.286 183.96C172.286 170.186 176.539 155.88 183.672 144.253C187.232 138.44 191.512 133.293 196.286 129.2C201.072 125.106 206.352 122.066 211.939 120.386C213.939 119.786 216.952 119.093 221.019 119.093C226.019 119.093 232.606 120.133 240.792 123.8L242.979 118.933Z" fill="#262626"/>
<path d="M192.032 359.365C191.886 360.154 191.459 362.805 191.459 366.452C191.459 369.792 191.819 373.985 193.112 378.398C194.406 382.808 196.659 387.452 200.446 391.557C206.992 398.658 216.499 402.433 226.472 402.432C234.312 402.433 242.486 400.097 249.819 395.182L248.339 392.968L245.819 392.08C244.739 395.153 244.206 398.324 244.206 401.446C244.206 408.953 247.232 416.216 252.832 421.174C255.672 423.688 258.766 425.224 261.672 426.114C264.592 427.008 267.352 427.268 269.606 427.269C272.566 427.269 274.712 426.814 275.286 426.684L274.699 424.084L272.086 424.625C272.259 425.47 272.872 428.266 274.526 431.5C276.179 434.73 278.926 438.482 283.392 441.056C286.752 442.985 290.526 443.924 294.339 443.922C300.872 443.921 307.539 441.188 312.672 435.969L308.872 432.228C304.712 436.464 299.379 438.59 294.339 438.589C291.392 438.588 288.552 437.87 286.059 436.433C282.739 434.529 280.619 431.682 279.272 429.068C277.939 426.457 277.432 424.161 277.299 423.542L276.752 420.877L274.099 421.484C273.766 421.56 272.032 421.936 269.606 421.936C267.766 421.936 265.539 421.718 263.232 421.014C260.939 420.31 258.579 419.134 256.366 417.18C252.006 413.329 249.539 407.533 249.539 401.446C249.539 398.92 249.966 396.349 250.846 393.854L253.526 386.278L246.846 390.752C240.392 395.08 233.259 397.098 226.472 397.098C217.819 397.098 209.779 393.829 204.366 387.944C201.232 384.54 199.339 380.684 198.232 376.896C197.112 373.113 196.792 369.412 196.792 366.452C196.792 363.214 197.179 360.885 197.286 360.286L192.032 359.365Z" fill="#262626"/>
<path d="M353.272 65.1065V65.0264C353.272 58.8931 351.766 53.4132 349.406 49.1998C348.219 47.0932 346.819 45.2931 345.206 43.8931C343.606 42.5064 341.779 41.5065 339.779 41.1465C339.219 41.0398 338.672 40.9998 338.112 40.9998C335.899 40.9998 333.686 41.7064 331.592 42.9198C328.446 44.7464 325.526 47.7331 323.286 51.6931C321.046 55.6664 319.499 60.6265 319.206 66.3731L321.872 66.5065L319.299 65.8131C319.139 66.3731 318.726 67.8931 318.352 69.7597C317.979 71.6397 317.619 73.8398 317.619 75.9198C317.619 76.9464 317.699 77.9465 318.006 78.9731C318.152 79.4931 318.366 80.0131 318.712 80.5198C319.059 81.0398 319.552 81.5465 320.192 81.9065C320.952 82.3331 321.752 82.4665 322.459 82.4665C323.206 82.4665 323.886 82.3331 324.539 82.1198C325.672 81.7598 326.766 81.1597 327.819 80.4264C329.392 79.3064 330.899 77.8265 332.086 76.0665C333.272 74.3065 334.166 72.2264 334.232 69.8931V69.6798C334.219 67.0531 333.192 64.5598 331.632 62.1864C329.286 58.6531 325.632 55.3465 321.246 52.8398C316.846 50.3331 311.699 48.6398 306.352 48.6398C303.792 48.6398 301.179 49.0398 298.619 49.9465C295.752 50.9731 293.232 52.5464 291.086 54.4531C287.886 57.3331 285.526 60.9597 283.952 64.7597C282.379 68.5731 281.592 72.5731 281.592 76.3065C281.592 76.6398 281.592 76.9731 281.606 77.3065C281.726 80.2665 282.352 83.5065 283.366 86.2398C283.872 87.6131 284.459 88.8532 285.259 89.9332C285.659 90.4665 286.126 90.9732 286.739 91.3998C287.339 91.8265 288.139 92.1865 289.059 92.2398L289.299 92.2531C290.072 92.2531 290.752 92.0398 291.326 91.7731C292.326 91.2798 293.072 90.5865 293.766 89.7998C294.779 88.6132 295.632 87.1598 296.272 85.5332C296.899 83.9065 297.312 82.1064 297.312 80.2531C297.312 79.0398 297.139 77.7864 296.659 76.5864C295.979 74.8398 294.779 73.3731 293.312 72.1065C291.099 70.2265 288.232 68.7732 284.979 67.7332C281.726 66.6932 278.086 66.0931 274.352 66.0931C270.979 66.0931 267.512 66.5864 264.206 67.7198C260.899 68.8664 257.752 70.6665 255.086 73.2665C249.926 78.3198 247.379 85.5865 247.379 93.2665C247.379 98.1065 248.379 103.133 250.419 107.973L255.339 105.906C253.566 101.693 252.712 97.3598 252.712 93.2665C252.712 86.7465 254.886 80.9198 258.819 77.0798C260.846 75.0931 263.272 73.6931 265.939 72.7731C268.606 71.8531 271.486 71.4264 274.352 71.4264C278.566 71.4264 282.739 72.3465 285.912 73.7731C287.512 74.4931 288.859 75.3197 289.846 76.1597C290.832 77.0131 291.432 77.8532 291.699 78.5332C291.886 78.9998 291.992 79.5864 291.992 80.2531C292.006 81.8131 291.366 83.7998 290.512 85.1998C290.099 85.9065 289.632 86.4531 289.312 86.7465C289.152 86.8798 289.032 86.9597 289.006 86.9597L289.299 87.6398V86.9198C289.099 86.9198 289.006 86.9597 289.006 86.9597L289.299 87.6398V86.9198V88.1198L289.366 86.9198H289.299V88.1198L289.366 86.9198L289.299 88.0131L289.699 86.9864C289.619 86.9598 289.499 86.9331 289.366 86.9198L289.299 88.0131L289.699 86.9864L289.499 87.4931L289.806 87.0398L289.699 86.9864L289.499 87.4931L289.806 87.0398L289.752 86.9998C289.606 86.8665 289.259 86.3998 288.926 85.7332C288.432 84.7198 287.939 83.2798 287.579 81.7332C287.219 80.1865 286.992 78.5331 286.939 77.0931C286.926 76.8397 286.926 76.5731 286.926 76.3065C286.912 72.3331 288.099 67.6665 290.406 63.7065C291.552 61.7331 292.979 59.9197 294.646 58.4264C296.326 56.9331 298.232 55.7465 300.419 54.9731C302.339 54.2798 304.339 53.9731 306.352 53.9731C309.152 53.9731 312.006 54.5731 314.699 55.6131C318.752 57.1731 322.432 59.7197 325.006 62.4264C326.299 63.7731 327.299 65.1597 327.952 66.4264C328.619 67.7064 328.899 68.8398 328.899 69.6798V69.7597C328.886 70.4931 328.632 71.3598 328.166 72.2531C327.459 73.5864 326.259 74.9331 325.046 75.8398C324.432 76.3065 323.832 76.6532 323.352 76.8665C322.872 77.0932 322.499 77.1465 322.459 77.1332V77.2531L322.472 77.1332H322.459V77.2531L322.472 77.1332L322.379 78.0131L322.806 77.2531C322.646 77.1598 322.512 77.1465 322.472 77.1332L322.379 78.0131L322.806 77.2531L322.339 78.0931L323.139 77.5465C323.112 77.5065 322.992 77.3598 322.806 77.2531L322.339 78.0931L323.139 77.5465L322.979 77.6665L323.152 77.5731L323.139 77.5465L322.979 77.6665L323.152 77.5731C323.112 77.5465 322.939 76.8398 322.952 75.9198C322.952 74.4664 323.232 72.5064 323.579 70.8264C323.926 69.1331 324.299 67.7198 324.446 67.2131L324.512 66.9332L324.526 66.6531C324.872 60.0398 327.112 54.8665 329.899 51.3998C331.286 49.6665 332.819 48.3732 334.259 47.5332C335.712 46.6932 337.072 46.3332 338.112 46.3332C338.379 46.3332 338.619 46.3598 338.846 46.3998C339.659 46.5332 340.672 47.0131 341.712 47.9198C343.286 49.2798 344.886 51.5732 346.046 54.5332C347.206 57.4932 347.939 61.0797 347.939 65.0264V65.1065H353.272Z" fill="#262626"/>
<path d="M500.606 483.285C493.886 488.837 479.966 498.613 460.179 500.844C419.486 505.432 390.592 474.004 387.312 470.328C399.552 476.193 410.299 479.288 418.086 481.024C430.806 483.859 440.393 485.996 452.406 483.126C462.459 480.728 469.673 475.91 473.593 473.248C481.206 468.061 486.499 462.364 489.886 458.136C493.459 466.518 497.033 474.903 500.606 483.285Z" fill="#262626"/>
<path d="M377.646 567.422C386.352 572.566 406.619 583.069 433.339 583.076C436.979 583.076 440.752 582.878 444.632 582.444C447.392 582.132 461.512 580.342 477.672 573.208C485.766 569.637 494.352 564.724 502.285 557.957C510.192 551.192 517.432 542.561 522.739 531.624C529.726 517.198 531.072 503.458 531.072 494.252C531.072 492.84 531.046 491.536 530.992 490.352L525.672 490.569C525.712 491.689 525.739 492.921 525.739 494.252C525.739 502.938 524.459 515.838 517.939 529.298C512.992 539.508 506.259 547.542 498.819 553.902C487.659 563.437 474.899 569.169 464.446 572.542C453.992 575.918 445.872 576.94 444.032 577.144C440.366 577.556 436.792 577.742 433.339 577.742C408.046 577.749 388.659 567.742 380.352 562.832L377.646 567.424" fill="#262626"/>
<path d="M350.259 577.937C359.872 585.053 384.352 601.188 419.912 603.787C421.912 603.933 425.139 604.123 429.285 604.123C438.352 604.121 451.885 603.223 467.019 598.989C482.152 594.756 498.899 587.173 514.299 573.808C532.859 557.709 542.725 539.057 547.899 523.099C553.085 507.133 553.645 493.831 553.645 488.233C553.645 487.475 553.632 486.857 553.619 486.404L548.285 486.517C548.299 486.949 548.312 487.523 548.312 488.233C548.312 493.467 547.792 506.209 542.832 521.451C537.872 536.696 528.525 554.409 510.805 569.78C496.099 582.539 480.112 589.787 465.579 593.853C451.045 597.919 438.005 598.789 429.285 598.789C425.299 598.789 422.219 598.607 420.312 598.468C386.192 595.981 362.645 580.471 353.432 573.651L350.259 577.937Z" fill="#262626"/>
<path d="M397.392 415.636C397.672 415.073 398.565 413.32 400.272 411.412C401.965 409.504 404.432 407.488 407.859 406.318C409.806 405.654 411.672 405.398 413.405 405.398C416.272 405.396 418.845 406.109 420.752 406.888C422.672 407.665 423.912 408.493 424.165 408.662L427.165 404.258C426.712 403.95 425.139 402.913 422.765 401.946C420.379 400.98 417.152 400.066 413.405 400.065C411.139 400.064 408.672 400.405 406.139 401.27C401.659 402.798 398.445 405.445 396.285 407.861C394.139 410.276 392.992 412.506 392.605 413.285L397.392 415.636Z" fill="#262626"/>
<path d="M336.658 578.638C320.792 584.75 290.992 596.189 252.765 610.633C226.832 620.436 210.698 626.441 199.218 631.554C193.472 634.112 188.872 636.452 184.818 638.936C180.765 641.418 177.258 644.045 173.738 647.116C162.645 656.761 154.898 667.709 148.778 681.74C142.658 695.777 138.072 712.885 133.058 735.21C125.245 770.046 123.552 794.514 121.632 818.953C119.712 843.4 117.578 867.832 108.898 903.157C102.685 928.426 95.5116 948.613 90.5116 961.493L89.3516 964.493L92.5116 965.08C121.085 970.453 146.912 974.853 169.378 978.426C213.272 985.413 234.698 987.773 249.312 987.773C256.205 987.773 261.578 987.24 266.912 986.426C286.285 983.506 310.365 976.28 336.232 959.36L333.325 954.893C308.125 971.36 284.845 978.32 266.112 981.16C260.952 981.933 255.938 982.44 249.312 982.44C235.298 982.44 214.018 980.146 170.218 973.16C147.792 969.586 122.018 965.2 93.4983 959.84L93.0049 962.466L95.4849 963.426C100.538 950.386 107.792 929.973 114.085 904.43C122.858 868.753 125.032 843.844 126.952 819.37C128.872 794.889 130.538 770.858 138.272 736.377C143.245 714.158 147.778 697.336 153.672 683.876C159.565 670.41 166.738 660.297 177.245 651.138C180.592 648.225 183.818 645.809 187.605 643.484C193.298 639.998 200.312 636.706 210.792 632.448C221.272 628.19 235.192 622.974 254.658 615.622C292.898 601.173 322.698 589.73 338.578 583.616L336.658 578.638Z" fill="#262626"/>
<path d="M210.312 999.533C226.792 1037.03 243.032 1077 258.619 1119.39C273.166 1158.97 285.859 1197.23 296.966 1233.91L302.073 1232.36C290.939 1195.59 278.206 1157.23 263.619 1117.55C248.006 1075.05 231.713 1034.97 215.206 997.386L210.312 999.533Z" fill="#262626"/>
<path d="M230.232 793.383C236.539 801.895 245.899 812.689 259.166 823.217C273.579 834.652 287.632 841.809 298.192 846.252L300.259 841.336C290.019 837.032 276.419 830.099 262.486 819.039C249.646 808.857 240.619 798.425 234.526 790.207L230.232 793.383Z" fill="#262626"/>
<path d="M262.592 746.066C285.432 806.765 304.538 859.172 319.472 900.696C338.432 953.44 352.378 992.36 363.485 1026.75C374.592 1061.13 382.858 1090.99 390.485 1125.69C395.405 1148.13 398.845 1166.84 401.032 1179.59L406.298 1178.68C404.085 1165.88 400.645 1147.09 395.698 1124.56C388.045 1089.68 379.712 1059.61 368.565 1025.11C357.418 990.6 343.445 951.64 324.485 898.892C309.552 857.348 290.432 804.916 267.578 744.189L262.592 746.066Z" fill="#262626"/>
<path d="M313.953 841.079C340.006 836.023 379.233 827.847 426.459 815.711C462.659 806.412 493.459 798.379 522.739 788.909C552.019 779.44 579.766 768.532 609.753 753.512C643.153 736.783 669.193 720 686.526 707.985L683.486 703.603C666.313 715.515 640.486 732.155 607.366 748.743C577.633 763.636 550.179 774.429 521.099 783.835C492.019 793.239 461.313 801.249 425.139 810.545C378.033 822.648 338.913 830.801 312.939 835.843L313.953 841.079Z" fill="#262626"/>
<path d="M372.646 1021.11C398.006 1018.17 431.272 1011.68 467.992 996.933C495.912 985.733 518.752 972.586 536.485 960.68L533.512 956.253C516.032 967.986 493.512 980.946 466.006 991.986C429.819 1006.52 397.019 1012.92 372.032 1015.81L372.646 1021.11Z" fill="#262626"/>
<path d="M556.912 486.396C558.819 485.972 562.779 485.072 567.765 483.847C588.725 478.695 602.912 472.212 616.965 465.754C631.032 459.294 644.992 452.857 666.032 447.461C670.552 446.301 673.072 445.658 676.152 445.082C680.792 444.213 686.219 443.591 692.432 443.589C703.659 443.592 717.472 445.621 733.952 451.997C750.419 458.375 769.565 469.109 791.339 486.542L794.672 482.38C772.539 464.661 752.939 453.627 735.872 447.024C718.819 440.419 704.299 438.255 692.432 438.256C685.859 438.256 680.099 438.917 675.179 439.84C671.885 440.456 669.219 441.141 664.712 442.295C643.232 447.799 628.792 454.453 614.739 460.908C600.672 467.367 586.992 473.624 566.485 478.668C561.565 479.88 557.619 480.772 555.752 481.192L556.912 486.397" fill="#262626"/>
<path d="M1009.37 591.681C1032.93 545.902 1056.49 500.125 1080.03 454.348L1075.3 451.908C1051.74 497.685 1028.18 543.463 1004.63 589.241L1009.37 591.681Z" fill="#262626"/>
<path d="M1144.64 494.537C1137.86 507.276 1132.32 525.072 1126.94 543.962C1121.56 562.841 1116.36 582.792 1110.48 599.578C1102.51 622.318 1096.99 640.357 1091.99 656.764C1086.98 673.172 1082.47 687.937 1076.5 704.209L1081.5 706.046C1087.54 689.606 1092.07 674.725 1097.08 658.322C1102.1 641.917 1107.58 623.977 1115.51 601.342C1121.51 584.245 1126.71 564.225 1132.06 545.422C1137.4 526.63 1142.94 509.034 1149.35 497.05L1144.64 494.537Z" fill="#262626"/>
<path d="M1093.65 428.168C1094.47 422.253 1095.97 415.347 1098.74 408.4C1101.53 401.449 1105.59 394.468 1111.58 388.323C1117.3 382.459 1123.09 379.047 1129.5 376.177C1135.9 373.312 1142.93 371.044 1150.75 367.564C1166.67 360.488 1187.79 347.439 1209.06 321.485L1207.01 319.8L1204.53 320.791C1205.65 323.583 1207.06 328.096 1207.06 333.692C1207.06 334.327 1207.05 334.976 1207.01 335.64C1206.66 341.611 1204.75 346.572 1202.65 350.369C1200.53 354.165 1198.21 356.76 1197.07 357.957L1200.94 361.632C1202.25 360.251 1204.89 357.299 1207.3 352.967C1209.71 348.635 1211.93 342.885 1212.33 335.949C1212.38 335.181 1212.39 334.429 1212.39 333.692C1212.39 327.197 1210.77 322.003 1209.47 318.8L1207.79 314.627L1204.94 318.107C1184.21 343.391 1163.87 355.881 1148.58 362.691C1141.06 366.04 1134.09 368.288 1127.33 371.308C1120.57 374.323 1114.02 378.163 1107.75 384.6C1101.19 391.332 1096.78 398.953 1093.79 406.419C1090.81 413.887 1089.25 421.209 1088.37 427.42L1093.65 428.168Z" fill="#262626"/>
<path d="M1157.18 384.991C1175.89 378.747 1191.43 375.181 1202.18 373.077C1211.94 371.169 1217.94 370.279 1223.73 369.303C1229.51 368.327 1235.06 367.261 1243.66 365.043C1252.1 362.871 1256.1 361.429 1260.74 359.779C1265.37 358.132 1270.73 356.249 1282.38 353.032C1296.22 349.204 1306.03 347.081 1315.73 347.084C1318.87 347.084 1322.01 347.304 1325.3 347.768C1330.26 348.468 1334.27 349.544 1336.89 350.344L1338.45 345.244C1335.65 344.388 1331.37 343.237 1326.05 342.487C1322.51 341.991 1319.13 341.751 1315.73 341.751C1305.22 341.753 1294.91 344.039 1280.95 347.891C1269.22 351.132 1263.62 353.093 1258.95 354.753C1254.29 356.409 1250.63 357.737 1242.34 359.879C1233.86 362.063 1228.55 363.079 1222.83 364.043C1217.13 365.007 1211.01 365.916 1201.15 367.844C1190.25 369.979 1174.46 373.6 1155.49 379.932L1157.18 384.991Z" fill="#262626"/>
<path d="M1277.05 369.032C1277.05 369.03 1277.59 368.878 1278.62 368.596C1285.82 366.62 1316.25 358.294 1342.33 351.713C1342.82 351.586 1343.61 351.393 1344.66 351.225C1345.71 351.058 1347.01 350.922 1348.47 350.922C1350.23 350.922 1352.22 351.121 1354.29 351.697C1356.29 352.246 1358.78 353.293 1360.58 354.465C1361.49 355.045 1362.19 355.66 1362.59 356.142C1362.79 356.382 1362.91 356.584 1362.97 356.708C1363.02 356.836 1363.01 356.87 1363.02 356.87L1363.01 356.869C1362.99 356.905 1362.94 357.068 1362.59 357.397C1362.26 357.721 1361.63 358.194 1360.53 358.718L1362.81 363.536C1364.81 362.585 1366.15 361.542 1367.03 360.428C1367.47 359.873 1367.79 359.302 1367.99 358.77C1368.19 358.24 1368.29 357.746 1368.33 357.385V357.374C1368.34 357.213 1368.35 357.045 1368.34 356.87C1368.35 356.04 1368.15 355.257 1367.85 354.572C1367.31 353.369 1366.51 352.432 1365.61 351.602C1364.23 350.369 1362.59 349.369 1360.87 348.525C1359.15 347.685 1357.37 347.017 1355.71 346.558C1353.1 345.832 1350.63 345.589 1348.47 345.589C1346.69 345.589 1345.1 345.756 1343.83 345.958C1342.55 346.16 1341.57 346.402 1341.02 346.542C1311.13 354.085 1275.63 363.888 1275.62 363.89L1277.05 369.032Z" fill="#262626"/>
<path d="M1244.34 375.986C1244.47 377.84 1244.57 379.881 1244.57 382.088C1244.57 386.728 1244.18 392.094 1243.05 397.956C1240.74 409.953 1236.23 419.16 1232.71 425.098L1237.3 427.824C1241.05 421.514 1245.83 411.729 1248.29 398.965C1249.49 392.729 1249.9 387.021 1249.9 382.088C1249.9 379.742 1249.81 377.57 1249.66 375.601L1244.34 375.986Z" fill="#262626"/>
<path d="M1130.41 482.395C1141.38 484.877 1151.1 485.768 1159.49 485.767C1168.03 485.768 1175.18 484.84 1180.85 483.745C1192.74 481.451 1200.87 477.809 1210.57 472.768C1220.27 467.724 1231.67 461.249 1250.74 452.904C1260.85 448.481 1266.17 446.667 1272.02 444.679C1277.89 442.692 1284.26 440.54 1296.03 435.585C1316.73 426.884 1333.25 418.617 1344.25 412.82L1344.39 412.739L1344.54 412.636C1347.79 410.332 1351.9 407.271 1355.3 404.143C1356.99 402.572 1358.53 400.992 1359.7 399.391C1360.29 398.587 1360.79 397.776 1361.18 396.912C1361.57 396.049 1361.85 395.117 1361.85 394.069C1361.85 393.423 1361.73 392.736 1361.46 392.091C1361.06 391.131 1360.35 390.369 1359.61 389.849C1358.47 389.065 1357.22 388.689 1355.89 388.437C1354.54 388.195 1353.09 388.103 1351.5 388.101C1348.67 388.103 1345.47 388.401 1342.11 388.847C1338.74 389.293 1335.23 389.889 1331.86 390.504C1311.47 394.215 1281.38 401.276 1242.07 415.963L1243.94 420.959C1282.94 406.388 1312.7 399.415 1332.81 395.751C1336.14 395.145 1339.58 394.561 1342.81 394.133C1346.03 393.705 1349.06 393.433 1351.5 393.435C1353.31 393.429 1354.82 393.599 1355.71 393.864C1356.15 393.992 1356.43 394.138 1356.54 394.216L1356.59 394.257L1356.61 394.264L1356.85 394.036L1356.54 394.165L1356.61 394.264L1356.85 394.036L1356.54 394.165L1356.91 394.011L1356.51 394.085L1356.54 394.165L1356.91 394.011L1356.51 394.085L1356.71 394.048L1356.51 394.065V394.085L1356.71 394.048L1356.51 394.065V394.069C1356.53 394.099 1356.49 394.347 1356.31 394.739C1356.02 395.429 1355.29 396.491 1354.26 397.633C1352.73 399.36 1350.54 401.313 1348.25 403.173C1345.95 405.037 1343.53 406.819 1341.46 408.285L1343.01 410.461L1341.75 408.101C1330.85 413.847 1314.49 422.043 1293.97 430.669C1282.3 435.576 1276.17 437.64 1270.31 439.628C1264.45 441.616 1258.83 443.537 1248.59 448.019C1229.33 456.452 1217.67 463.064 1208.1 468.035C1198.51 473.008 1191.14 476.311 1179.83 478.509C1174.45 479.551 1167.65 480.433 1159.49 480.433C1151.49 480.433 1142.17 479.585 1131.59 477.193L1130.41 482.395Z" fill="#262626"/>
<path d="M1262.2 389.072C1282.42 384.872 1302.88 380.428 1323.59 375.728C1337.07 372.667 1350.42 369.552 1363.62 366.388L1363 363.795L1363.16 366.456C1363.63 366.428 1364.08 366.414 1364.54 366.414C1367.18 366.41 1369.52 366.901 1371.15 367.644C1371.96 368.012 1372.6 368.438 1373.03 368.846C1373.47 369.257 1373.68 369.63 1373.8 369.964C1373.86 370.158 1373.9 370.345 1373.9 370.568C1373.9 370.948 1373.79 371.457 1373.51 372.09C1373.1 373.04 1372.3 374.217 1371.27 375.446C1370.24 376.681 1369 377.976 1367.74 379.279C1363.18 384.028 1358.34 386.641 1355.25 388.028L1357.42 392.895C1360.91 391.332 1366.39 388.377 1371.59 382.977C1373.26 381.235 1375.06 379.385 1376.52 377.395C1377.24 376.396 1377.9 375.357 1378.39 374.233C1378.88 373.112 1379.23 371.885 1379.23 370.568C1379.23 369.817 1379.11 369.042 1378.86 368.29C1378.43 366.993 1377.66 365.878 1376.7 364.974C1375.26 363.617 1373.43 362.68 1371.38 362.041C1369.31 361.406 1366.99 361.082 1364.54 361.081C1363.98 361.081 1363.41 361.098 1362.85 361.132L1362.6 361.146L1362.38 361.201C1349.19 364.36 1335.87 367.47 1322.4 370.526C1301.74 375.22 1281.3 379.657 1261.12 383.851L1262.2 389.072Z" fill="#262626"/>
<path d="M709.045 580.984C712.605 598.762 716.165 616.54 719.712 634.317L724.952 633.272C721.392 615.493 717.832 597.716 714.285 579.937L709.045 580.984Z" fill="#262626"/>
<path d="M851.606 1001.21L851.566 1001.05C850.819 997.586 838.206 937.28 834.339 804.382C833.633 780.172 833.339 758.745 833.339 739.873C833.339 695.841 834.913 665.726 836.499 646.648C837.286 637.108 838.073 630.328 838.659 625.946C838.953 623.754 839.193 622.164 839.366 621.128C839.446 620.609 839.512 620.229 839.552 619.982C839.579 619.86 839.593 619.769 839.606 619.712L839.619 619.636L837.006 619.128L837.752 621.685C838.099 621.584 856.579 616.285 893.193 616.284C896.913 616.284 900.833 616.338 904.926 616.46L905.006 613.794L902.339 613.553C902.339 613.562 896.833 674.18 891.326 749.21C885.806 824.25 880.299 913.666 880.299 971.426C880.299 982.973 880.513 993.266 881.006 1001.95L883.673 1001.8V999.133H866.339V1004.47H886.486L886.326 1001.64C885.846 993.106 885.633 982.906 885.633 971.426C885.633 913.973 891.126 824.574 896.646 749.601C899.392 712.11 902.152 678.217 904.219 653.697C905.246 641.437 906.112 631.52 906.712 624.669C907.006 621.244 907.246 618.585 907.406 616.782C907.566 614.98 907.659 614.038 907.659 614.036L907.912 611.212L905.073 611.129C900.926 611.006 896.966 610.95 893.193 610.95C855.473 610.95 836.472 616.501 836.246 616.569L834.686 617.026L834.379 618.618C834.339 618.84 828.006 651.553 828.006 739.873C828.006 758.8 828.299 780.278 829.006 804.538C833.006 942.026 846.353 1002.19 846.393 1002.37L851.606 1001.21Z" fill="#262626"/>
<path d="M873.486 1049.01L873.713 1046.36C873.34 1046.33 872.98 1046.32 872.62 1046.32C869.953 1046.32 867.42 1047.13 865.126 1048.4C861.686 1050.32 858.686 1053.25 856.18 1056.53C853.686 1059.83 851.713 1063.47 850.433 1066.93C849.02 1070.79 848.02 1075.68 848.02 1080.81C848.02 1084.77 848.62 1088.89 850.22 1092.72C851.806 1096.53 854.433 1100.07 858.326 1102.61C862.366 1105.27 867.02 1106.41 871.593 1106.41C875.726 1106.41 879.806 1105.48 883.46 1103.85C887.113 1102.21 890.34 1099.87 892.7 1096.91C894.393 1094.77 895.58 1092.36 896.34 1089.81C897.1 1087.27 897.446 1084.59 897.446 1081.88C897.42 1073.85 894.54 1065.48 890.273 1058.81C888.126 1055.48 885.633 1052.57 882.86 1050.37C880.086 1048.17 877.006 1046.65 873.713 1046.36L873.486 1049.01L873.26 1051.68C875.153 1051.83 877.34 1052.8 879.54 1054.55C882.846 1057.15 886.06 1061.44 888.366 1066.37C890.686 1071.29 892.113 1076.84 892.113 1081.88C892.113 1084.15 891.82 1086.31 891.233 1088.28C890.646 1090.25 889.753 1092.04 888.513 1093.59C886.806 1095.76 884.26 1097.65 881.286 1098.99C878.313 1100.32 874.926 1101.08 871.593 1101.08C867.9 1101.08 864.3 1100.16 861.246 1098.16C858.326 1096.23 856.393 1093.67 855.14 1090.67C853.886 1087.67 853.353 1084.23 853.353 1080.81C853.34 1076.39 854.246 1072.01 855.446 1068.77C856.86 1064.88 859.526 1060.4 862.713 1057.07C864.3 1055.39 866.02 1054 867.713 1053.07C869.406 1052.13 871.06 1051.65 872.62 1051.65C872.833 1051.65 873.046 1051.65 873.26 1051.68L873.486 1049.01Z" fill="#262626"/>
<path d="M390.378 1214.73L392.699 1216.07C549.565 943.306 706.445 670.549 863.312 397.79L861.005 396.461L858.725 397.845C1023.74 669.462 1188.75 941.08 1353.76 1212.69L1356.05 1211.31L1356.03 1208.64C1034.15 1209.79 712.258 1210.93 390.378 1212.07V1214.73L390.392 1217.4C712.285 1216.27 1034.17 1215.12 1356.06 1213.97C1357.02 1213.97 1357.9 1213.45 1358.36 1212.61C1358.84 1211.77 1358.82 1210.75 1358.33 1209.92C1193.31 938.306 1028.3 666.693 863.285 395.076C862.792 394.269 861.912 393.782 860.965 393.794C860.018 393.805 859.165 394.313 858.685 395.132C701.818 667.89 544.938 940.653 388.072 1213.41C387.592 1214.23 387.605 1215.25 388.072 1216.08C388.552 1216.91 389.445 1217.41 390.392 1217.4L390.378 1214.73Z" fill="#262626"/>
<path d="M65.0642 1107.71C65.4136 1109.28 66.6042 1114.28 69.7562 1120.11C72.8988 1125.92 78.0589 1132.63 86.3256 1137.43C87.0989 1137.88 89.9389 1139.48 94.0722 1140.99C98.2189 1142.48 103.659 1143.89 109.685 1143.89C115.472 1143.91 121.806 1142.56 127.779 1138.71C133.792 1134.81 138.286 1129.16 141.299 1123.12C144.312 1117.07 145.872 1110.61 145.885 1104.88C145.885 1102.32 145.565 1099.89 144.885 1097.68C144.192 1095.48 143.126 1093.49 141.566 1091.92C140.139 1090.49 138.406 1089.49 136.566 1088.83C134.712 1088.17 132.752 1087.85 130.792 1087.85C129.059 1087.85 127.325 1088.11 125.685 1088.64C124.059 1089.16 122.512 1089.97 121.219 1091.15C119.725 1092.48 118.699 1094.19 118.085 1095.99C117.472 1097.79 117.232 1099.69 117.232 1101.64C117.232 1104.61 117.806 1107.68 118.672 1110.57C119.552 1113.45 120.725 1116.17 122.019 1118.45C124.459 1122.72 127.726 1126.08 131.272 1128.69C136.606 1132.63 142.566 1134.93 147.646 1136.33C152.712 1137.73 156.925 1138.24 158.685 1138.44C160.899 1138.71 163.086 1138.83 165.259 1138.83C174.819 1138.83 183.806 1136.4 191.926 1132.72C204.112 1127.21 214.379 1118.92 221.966 1111.59C229.552 1104.25 234.459 1097.85 235.806 1096.05C236.686 1094.88 236.446 1093.21 235.259 1092.32C234.086 1091.44 232.419 1091.68 231.539 1092.87C229.886 1095.07 222.005 1105.33 210.152 1114.96C204.219 1119.79 197.312 1124.44 189.726 1127.87C182.139 1131.29 173.899 1133.49 165.259 1133.49C163.299 1133.49 161.312 1133.39 159.312 1133.15C158.179 1133.01 156.085 1132.76 153.419 1132.23C149.419 1131.43 144.179 1129.97 139.232 1127.39C134.286 1124.79 129.672 1121.09 126.646 1115.8C125.579 1113.92 124.539 1111.53 123.779 1109.03C123.032 1106.53 122.566 1103.92 122.566 1101.64C122.566 1100.15 122.766 1098.81 123.139 1097.71C123.512 1096.61 124.059 1095.77 124.779 1095.11C125.419 1094.53 126.299 1094.05 127.339 1093.71C128.379 1093.37 129.579 1093.19 130.792 1093.19C132.166 1093.19 133.552 1093.43 134.779 1093.85C135.992 1094.29 137.032 1094.92 137.779 1095.67C138.592 1096.49 139.299 1097.71 139.792 1099.28C140.286 1100.84 140.552 1102.76 140.552 1104.88C140.552 1109.64 139.192 1115.41 136.526 1120.75C133.859 1126.08 129.912 1130.97 124.885 1134.23C119.899 1137.44 114.672 1138.56 109.685 1138.56C104.512 1138.56 99.6189 1137.32 95.8989 1135.97C92.1656 1134.61 89.5922 1133.16 89.0055 1132.83C81.7922 1128.61 77.2588 1122.76 74.4455 1117.56C71.6322 1112.36 70.5656 1107.88 70.2709 1106.55C69.9509 1105.11 68.5255 1104.2 67.0882 1104.52C65.6509 1104.84 64.7442 1106.27 65.0642 1107.71Z" fill="#262626"/>
<path d="M760.738 189.266C762.712 190.733 767.938 194.506 775.418 197.906C782.912 201.306 792.698 204.373 803.832 204.373C807.805 204.373 811.965 203.986 816.218 203.066C830.218 200.053 842.418 192.173 851.205 183.653C855.592 179.373 859.138 174.946 861.632 170.786C862.872 168.706 863.858 166.693 864.552 164.773C865.232 162.84 865.645 161.013 865.645 159.253C865.645 157.826 865.365 156.413 864.658 155.146C864.058 154.106 863.232 153.28 862.312 152.626C860.912 151.653 859.272 151.026 857.485 150.613C855.685 150.186 853.738 150 851.685 150C847.552 150 843.018 150.786 838.818 152.426C834.645 154.08 830.752 156.586 828.152 160.253C825.725 163.706 824.685 167.906 824.685 172.293C824.712 179.826 827.632 188.106 832.405 195.706C837.192 203.306 843.858 210.226 851.658 214.76C859.192 219.133 867.765 221.24 876.565 221.24C888.938 221.24 901.792 217.12 913.178 209.333C914.392 208.493 914.698 206.84 913.872 205.626C913.032 204.4 911.378 204.093 910.165 204.933C899.605 212.16 887.752 215.906 876.565 215.906C868.605 215.906 860.992 214.013 854.338 210.16C847.432 206.16 841.272 199.813 836.912 192.866C832.538 185.933 830.005 178.4 830.018 172.293C830.032 168.706 830.858 165.68 832.512 163.333C834.272 160.826 837.258 158.76 840.765 157.4C844.272 156.013 848.232 155.333 851.685 155.333C853.965 155.333 856.005 155.64 857.485 156.146C858.232 156.4 858.832 156.693 859.245 156.986C859.658 157.293 859.885 157.56 860.018 157.773C860.165 158.04 860.312 158.506 860.312 159.253C860.312 160.16 860.072 161.453 859.525 162.973C858.578 165.613 856.738 168.906 854.138 172.346C850.232 177.506 844.658 183.013 837.965 187.653C831.258 192.293 823.458 196.066 815.112 197.853C811.232 198.68 807.458 199.04 803.832 199.04C793.698 199.04 784.632 196.226 777.632 193.053C770.632 189.866 765.752 186.346 763.925 184.986C762.752 184.106 761.072 184.36 760.192 185.533C759.312 186.72 759.552 188.386 760.738 189.266Z" fill="#262626"/>
<path d="M1403.89 808.166C1400.23 808.486 1388.81 809.586 1375.91 813.169C1369.46 814.962 1362.62 817.378 1356.18 820.66C1349.74 823.944 1343.69 828.096 1338.83 833.412C1334.97 837.665 1332.09 842.418 1330.17 847.105C1328.25 851.794 1327.27 856.412 1327.27 860.498C1327.27 863.348 1327.74 865.96 1328.86 868.182C1329.41 869.29 1330.15 870.3 1331.09 871.125C1332.01 871.95 1333.14 872.577 1334.38 872.918C1335.31 873.172 1336.26 873.273 1337.23 873.274C1339.97 873.264 1342.95 872.504 1346.09 871.249C1350.78 869.353 1355.75 866.297 1359.93 862.464C1362.02 860.545 1363.9 858.429 1365.42 856.138C1366.93 853.848 1368.1 851.376 1368.67 848.749C1368.94 847.518 1369.07 846.292 1369.07 845.085C1369.07 841.477 1367.9 838.093 1366.03 835.093C1363.21 830.584 1358.86 826.824 1353.97 823.756C1349.06 820.694 1343.61 818.34 1338.45 816.825C1332.11 814.968 1325.19 814.08 1317.99 814.08C1297.37 814.094 1274.35 821.336 1256.09 834.746C1254.9 835.62 1254.65 837.289 1255.51 838.476C1256.39 839.662 1258.06 839.917 1259.25 839.044C1276.5 826.34 1298.62 819.398 1317.99 819.413C1324.75 819.412 1331.18 820.252 1336.94 821.942C1343.21 823.773 1350.14 827.07 1355.31 831.221C1357.9 833.292 1360.05 835.568 1361.5 837.912C1362.97 840.262 1363.74 842.638 1363.74 845.085C1363.74 845.908 1363.65 846.745 1363.46 847.606C1362.93 850.05 1361.58 852.604 1359.62 855.03C1356.7 858.673 1352.47 861.985 1348.26 864.312C1346.15 865.478 1344.05 866.401 1342.13 867.02C1340.22 867.641 1338.5 867.945 1337.23 867.941C1336.63 867.941 1336.15 867.874 1335.81 867.777C1335.34 867.645 1334.97 867.442 1334.62 867.129C1334.09 866.664 1333.58 865.898 1333.21 864.768C1332.82 863.644 1332.61 862.184 1332.61 860.498C1332.61 857.273 1333.41 853.25 1335.1 849.126C1336.79 844.997 1339.35 840.761 1342.78 837.005C1347.06 832.306 1352.58 828.481 1358.61 825.412C1367.65 820.804 1377.78 817.912 1386.3 816.142C1394.82 814.369 1401.71 813.709 1404.35 813.48C1405.82 813.352 1406.9 812.058 1406.78 810.592C1406.65 809.124 1405.35 808.038 1403.89 808.166Z" fill="#262626"/>
</svg>
